<svg version="1" xmlns="http://www.w3.org/2000/svg" width="682.667" height="682.667" viewBox="0 0 512.000000 512.000000"><path d="M15.6 149.6c-1.6 1.1-1.6 1.5-.1 4.9l1.5 3.8 5.3-.7c2.8-.3 6-.6 7-.6 2.8 0 2-1.5-2.5-4.7-5-3.5-8.9-4.5-11.2-2.7zM39.6 160.1c-4.3.5-8.1 1-8.3 1.3-.3.2.7 2.4 2 4.8 1.4 2.4 3.7 7.3 5 11l2.5 6.8h-5c-4.4 0-10.8 2.1-10.8 3.6 0 .7 7.1 23.8 7.5 24.2.2.2 20.8-4 21.4-4.4.2-.2-2.2-5-5.3-10.8-3.1-5.8-5.6-10.9-5.6-11.4 0-1.5 11.7-4.2 17.7-4.1 9.7.2 9.8.3 16.4 12.6l6 11.3h-8.3c-6.8 0-18.8 2.1-18.8 3.3 0 .2 1.6 5 3.5 10.7 1.9 5.7 3.4 10.5 3.2 10.6-.1.1-3.1.9-6.7 1.7-3.6.9-8.6 2.5-11.2 3.6l-4.7 2 1.6 3.8c.9 2.1 1.9 5.9 2.3 8.5l.6 4.7-3.5.3-3.6.3-.3 54.9c-.1 39.7.1 55.3.9 56.2 1.5 1.9 28.9 2 30.7.2.9-.9 1.2-7.3 1.2-22.5V322l17.3-.2 17.2-.3v-25l-17.2-.3L70 296v-15l20.3-.2 20.2-.3.3-6.8.3-6.7h3.4c1.9 0 3.5-.2 3.5-.4s-1.8-4.1-3.9-8.7c-2.2-4.6-3.8-8.5-3.7-8.6.1-.2 2.7-.8 5.7-1.3 6.4-1.3 13.1-1.4 25.7-.5l9.3.7 6 8.9c3.4 4.9 6.4 8.9 6.8 8.9 4.5 0 30.4 4.1 35.4 5.6 1.4.4 1.7-.1 1.7-3.2 0-2.8-.9-4.8-3.6-8.1-2-2.4-3.4-4.6-3.1-4.9.2-.3 3.6 0 7.3.7 5.5.9 7.9 2 12.2 5.3 5.2 4 5.2 4.1 5.2 9.7v5.6l-10.6-1.7-10.6-1.7.5 2.6c.3 1.4 1 3.9 1.6 5.4 1.1 2.7 1.3 2.8 5.8 2.1 2.7-.4 6.7-1.2 9.1-1.9l4.2-1.3v11.4l-7.1-.9c-4.7-.7-7.3-.7-7.7 0-.4.6-2.4 1.6-4.4 2.2-4.7 1.5-12 9.5-13.6 14.7-.6 2.2-1.4 7.7-1.8 12.3-.8 9.5-2.4 12.1-7.4 12.1h-3.1l.3 15.7.3 15.8 7.1-.1c8-.2 11.5-1.6 17.9-7.5 5.3-4.8 9-13.1 10.6-22.9 1.3-8.6 1.9-9.6 5.8-10.2l2.8-.4.6 7.5c1 13.6 6.8 23.9 16.6 29.4 4.2 2.4 6.6 3 11.5 3.1l6.1.1v-31l-3-.3c-3.4-.4-5.5-2.6-5.5-5.8 0-2 .6-2.3 4.3-2.6l4.2-.3.5-8 .5-8 5.3-.3c3.3-.2 5.2-.8 5.2-1.5s-1.3-4.4-2.9-8.2c-3.6-8.4-3.6-8.3 8.6-7.7l8.2.4 1.8 4.2c1.6 3.6 1.9 8 2.3 35.6l.5 31.5h27l.3-35.7.2-35.7 8.8-.3 8.7-.3v-34l-21.6-.3c-21.5-.2-21.7-.3-22.3-2.5-.5-2.1-.9-2.2-9.1-1.9-7.6.3-8.5.5-8.5 2.3 0 1-.4 1.9-1 1.9s-1 3.5-1 8.5v8.5h-12.8l2.5 8c1.4 4.5 2.4 8.3 2.1 8.5-.2.2-3 .7-6.1 1.1l-5.7.7v-9.7c0-8.9.1-9.6 2-9.6 2.5 0 2.6.1-1.4-10l-3.3-8.5 2.6-.6c1.4-.4 5.8-.7 9.8-.8 3.9 0 7.8-.4 8.7-.7 2.1-.8 2-4.8-.3-12.3l-1.9-6 10.2-.3 10.1-.3.7-5c.4-3 .3-6.5-.4-8.8-.9-3-1.6-3.7-3.7-3.7-3.6.1-22.3 1.9-22.7 2.3-.2.1.6 3.3 1.8 7 1.1 3.8 1.7 7.1 1.4 7.4-.4.4-5.2.9-10.9 1.2l-10.2.6.3 5.5c.1 3 .7 7 1.3 8.8.6 1.8.9 3.4.7 3.6-.1.1-4.5-.1-9.6-.4-5-.3-9.2-.4-9.2-.3 0 .1 1.4 3.7 3 8 1.7 4.2 3 8.1 3 8.5 0 2.5-4.6-.6-18.3-12.5-15.1-13.1-15.5-13.3-23.6-15.6-4.6-1.2-8.6-2-8.9-1.6-.3.3 1.5 2.7 4 5.3 5.7 6 10.3 12.2 9 12.2-.5 0-4.3-.7-8.3-1.5-4.1-.8-12.3-2.2-18.3-2.9-6-.8-11.2-1.8-11.6-2.3-2.6-2.8-13-17.6-12.6-18 .6-.6 16.2 1.5 23.9 3.3 3.7.9 7 1.4 7.3 1.1.3-.3-2.6-5.2-6.4-10.9l-6.9-10.3-9.4-2.3c-5.2-1.2-12.7-2.5-16.7-2.9l-7.3-.6-5.5-10.9-5.5-11 5.8.7c5.1.6 25.8 4.5 25.8 4.9 0 0 3.5 5.4 7.8 11.8 5.4 8.2 8.3 11.8 9.6 11.8 1.1 0 5.2 1.1 9.2 2.5 4 1.3 7.4 2.3 7.6 2.2.5-.5-4.7-10.8-7.5-15-3.5-5-15.5-12.2-22-13.3-4.1-.6-4.3-.9-9.2-9.9-2.8-5.1-5.6-9.7-6.3-10.2-2.6-2.1-33.7-7.4-33.7-5.8 0 .4 2.3 4.6 5.2 9.4 2.8 4.7 5.3 8.9 5.4 9.2.2.3-2.9-.1-6.9-.8-4.5-.9-11.8-1.3-19.4-1.1l-12.2.3-4.2-10.8-4.1-10.7-7.6.1c-4.3.1-11.2.5-15.6 1zm83.3 47.4c1.2 1.4 12.1 18.5 12.1 19.1 0 .3-.5.2-1.2-.2-.6-.4-9.5-1-19.7-1.3l-18.5-.6-5.3-8.9c-2.9-4.9-5-9.2-4.7-9.5 2.1-2.1 35.2-.8 37.3 1.4zm-22.5 27.2c2 3.8 4.5 8.3 5.7 10l2.1 3.3H97.8c-9.3 0-11.1.3-17.3 3-9.2 3.9-10.2 3.8-11.4-.8-2.8-10.8-5-19.6-4.8-19.8 1.8-1.1 11.7-2.2 20.9-2.3L97 228l3.4 6.7zM108 267v10l-20.7.2-20.8.3v22l17.3.3 17.2.2v18l-17.2.2-17.3.3-.3 22.2L66 363H41V257h67v10zm218 4.5v14.4l-8.7.3-8.8.3-.3 35.7-.2 35.8h-22l-.2-35.8-.3-35.7-8.7-.3-8.8-.3V257h58v14.5zm-84.8 9.7l.3 12.3 4.8.3 4.7.3v25.8l-4.7.3-4.8.3.2 3.9c.3 5.1 2.7 8.5 6.3 9.3l3 .5V360h-3.7c-7.4-.1-16.9-6.5-20.9-14.3-3.9-7.5-4.4-12.3-4.4-45V269h18.9l.3 12.2zM216 306.9v12.9l-2.9.7c-3.4.7-4.7 3.2-5.6 11.1-1 8.1-3.9 15.3-8 20.2-5 5.8-9.3 8.1-16.4 8.8l-6.1.7v-13.2c0-12.3.1-13.1 1.9-13.1 1.1 0 3.2-1 4.6-2.3 2.4-2 2.8-3.4 3.9-13.2 1.4-11.7 2.7-15.4 7.3-19.7 4.1-3.9 9-5.7 15.6-5.8h5.7v12.9z"/><path d="M200 212.5c0 .3 1.9 4 4.2 8.2 3.4 6.2 3.8 7.4 2.2 7-4.4-1.3-18.5-3.8-19.5-3.5-1.3.4 9.2 14.1 14.9 19.2 3.8 3.5 5 4 10.3 4.4l6 .4-2.1-5.3c-1.2-3-3-7.1-4.1-9.3l-2-3.8 11.6.7c10.4.6 11.5.5 11.5-1 0-2.2-4-15.4-4.8-15.9-1.2-.7-28.2-1.8-28.2-1.1zM179 273.1c1.6 2.9 3.1 3.2 7.5 1.3 4.8-2 3.2-3.4-3.8-3.4-4.5 0-4.7.1-3.7 2.1zM175.5 279.4c-1.8 1.3-1.8 1.7-.5 4 1.6 3.1 11.4 12.6 12.9 12.6.6 0 1.1-1.7 1.1-3.8 0-3.2-.8-4.5-5.3-9-2.9-2.9-5.5-5.2-5.8-5.2-.3 0-1.4.6-2.4 1.4zM349.5 281.9c-5 2.2-11 8.8-13.5 14.7-3.3 7.7-4.1 15.9-3.8 40.4l.3 23.5h26l.5-22.2c.3-13.7.9-22.6 1.6-23.3.7-.7 1.9-.7 4.1 0l3.1 1.1.4 9.3c.3 8.3.8 10.2 4 16.8 4.2 8.4 9 13.8 15.1 17.1 4 2.1 5.1 2.2 24.2 1.9 11-.2 20.3-.6 20.7-.8 1.4-.9.9-44.3-.6-51.5-2.8-13-8.4-21.1-17.8-25.8-10-5-21.7-4.1-29.9 2.2-5.8 4.4-9.6 9.4-12.4 16.3l-2.5 5.9v-12.7c0-11.5-.2-12.8-1.9-13.8-3.1-1.6-13.2-1.2-17.6.9zm16.5 15.6V312l-2.3-.5c-1.5-.4-3.2.1-4.8 1.3-2.4 2-2.4 2.1-2.7 23.6l-.3 21.6h-21.1l.4-26.3c.4-24.6.5-26.6 2.7-32.1 2.6-6.6 8.1-13.3 12.6-15.2 1.7-.7 5.8-1.3 9.3-1.4h6.2v14.5zm48.5-11c2.6 1.6 6.3 5.2 8.1 7.8 6 8.7 6.7 12.5 7.2 39.4l.4 24.3H409v-19c0-20.8-.8-25.1-5.4-27.1-8.6-3.9-15.5 9.3-8.9 17.1 2.3 2.8 3.1 3.2 6.5 2.7l3.8-.5V359h-4.7c-2.7 0-6.5-.5-8.5-1-5.6-1.6-13.3-9.1-17-16.8-3.2-6.5-3.3-7-3.3-19.8v-13l3.8-7.6c4-8.3 10.2-14.7 15.9-16.6 1.8-.6 6.7-1 10.9-.9 6.5.2 8.3.6 12.4 3.2zm-10 30.5c2 3.9 2 10.6-.1 11.4-5.2 2-9.4-.8-9.4-6.3 0-7.6 6.4-11.1 9.5-5.1zM459.5 282.4c-9.9 4.6-18.3 17.3-20.5 30.9-2.9 18.6 5.9 38.9 20.1 46.3 4.3 2.2 14.3 2.9 19.6 1.5 12-3.3 22.5-18.4 24-34.8l.6-6.3h-5.5c-10.5 0-20.8 1.2-20.8 2.5 0 2.1-4.1 6.5-6 6.5-2.8 0-5-3.9-5-8.6 0-6.8 5.5-9.8 9.6-5.2 1.9 2.2 2.4 2.3 14.1 1.8 6.7-.3 12.4-.8 12.8-1.2 1.2-1.2-1.6-11.8-4.6-17.6-6.4-12.1-15.4-18.2-26.9-18.2-4.7 0-7.9.7-11.5 2.4zm22.1 2.7c2.4 1.1 5.9 3.8 7.9 6.1 3.9 4.2 8.9 14 10 19.5l.6 3.2-10.5.3c-9.7.3-10.7.1-13.1-2-6.4-5.5-13.5-.7-13.5 9.3 0 8.7 8.1 13.5 13.5 8 1.4-1.3 2.5-3 2.5-3.8 0-1.5 7.7-2.7 16.8-2.7h4.5l-.6 5.2c-1.4 11.1-7.1 21.3-15.4 27.1-5.9 4.2-15.7 4.9-23.1 1.7-13.4-5.8-22.2-25.7-19.3-43.5 2.1-12.7 9.4-23.9 18.3-28.4 5.8-2.8 15.6-2.9 21.4 0zM126.8 292.3c-5.2 2.6-7.1 4.4-10.5 9.5-5.9 8.7-7.6 15.3-7.1 26.6.3 7.5.9 10.2 3.4 15.6 4 8.6 8.3 13.3 14.8 16.5l5.3 2.6 18.9-.8 18.9-.8.3-19.5c.3-21.9-.5-28.6-4.8-37.1-5.3-10.4-14.4-15.9-26.6-15.9-5.1 0-7.4.6-12.6 3.3zm24.7 2.1c7.9 3.6 13.2 11 15.4 21.4.6 2.9 1.1 13.8 1.1 24.2v19h-19.9l-.3-18.4c-.3-17.9-.4-18.5-2.7-21-5.4-5.7-13.1-1.2-13.1 7.7 0 5.2 3.2 8.7 8.1 8.7h3.9v24h-5.4c-11.1 0-21.5-8.9-25.2-21.8-2.5-8.4-1.6-21.1 2-29 3.2-7 10.7-14.6 16-16.1 6.1-1.8 14.8-1.2 20.1 1.3zm-8 28c1 1.5 1.5 4 1.3 6.3-.3 3.5-.6 3.8-3.6 4.1-4.4.4-6.2-1.2-6.2-5.6 0-6.5 5.4-9.5 8.5-4.8z"/></svg>