<svg xmlns="http://www.w3.org/2000/svg" viewBox="0 0 800 800"><title>card-swipe-icon</title><g id="406e2160-ca55-46aa-bb4e-1a80a45fd24a" data-name="Card Swipe"><path d="M334.24,367.77a15.93,15.93,0,0,0-15.92,15.93V648.15a15.93,15.93,0,0,0,15.92,15.94H465.75a15.93,15.93,0,0,0,15.93-15.94V383.7a15.93,15.93,0,0,0-15.93-15.93Z" fill="#fff" stroke="#414042" stroke-miterlimit="10"/><rect x="359.12" y="471.05" width="9.38" height="43.46" fill="#e0e0e0"/><rect x="359.12" y="537.07" width="9.38" height="43.46" fill="#e0e0e0"/><rect x="359.12" y="405.03" width="9.38" height="43.46" fill="#e0e0e0"/><rect x="359.12" y="603.09" width="9.38" height="43.46" fill="#e0e0e0"/><rect x="223.63" y="521.1" width="241.51" height="9.38" transform="translate(-181.4 870.18) rotate(-90)" fill="#e0e0e0"/><path d="M439.07,569.55a1.78,1.78,0,0,0-1,.19,1.15,1.15,0,0,0-.39.7h-2.63v-6.7h2.63a.89.89,0,0,0,.45.48,2.29,2.29,0,0,0,.92.13H446a2.24,2.24,0,0,0,.91-.13.91.91,0,0,0,.44-.48h2.61V571c0,2.23-.37,3.77-1.12,4.62s-2.22,1.27-4.4,1.27c-1.91,0-3.24-.43-4-1.28s-1.12-2.36-1.12-4.54v-1.5Zm3.35,0v.34a2.14,2.14,0,0,0,.33,1.38,1.48,1.48,0,0,0,1.17.38h1.32a1.64,1.64,0,0,0,1.25-.37,2.15,2.15,0,0,0,.33-1.39v-.34Z" fill="#231f20"/><path d="M444.71,578.66c2,0,3.31.47,4.07,1.4s1.14,2.58,1.14,4.94-.38,4-1.14,4.92-2.11,1.39-4.07,1.39H440c-2,0-3.3-.46-4.06-1.39s-1.14-2.56-1.14-4.92.38-4,1.13-5,2.11-1.39,4.07-1.39Zm-5.38,7.39h6.06a1.93,1.93,0,0,0,1.11-.25.93.93,0,0,0,.33-.8,1,1,0,0,0-.32-.81,1.87,1.87,0,0,0-1.12-.25h-6.06a1.8,1.8,0,0,0-1.1.25,1.17,1.17,0,0,0,0,1.61A1.92,1.92,0,0,0,439.33,586.05Z" fill="#231f20"/><path d="M449.92,600h-2.61a.88.88,0,0,0-.42-.48,2.31,2.31,0,0,0-.93-.14h-6.89a2.3,2.3,0,0,0-.94.14.93.93,0,0,0-.43.48h-2.63v-6.55h2.63a1,1,0,0,0,.46.51,2.27,2.27,0,0,0,.91.14H446a2.3,2.3,0,0,0,.91-.14,1,1,0,0,0,.44-.51h2.61Z" fill="#231f20"/><path d="M439.07,606.68a2.4,2.4,0,0,0-1,.14.82.82,0,0,0-.39.49h-2.63V601.9h2.63a1,1,0,0,0,.46.49,2.27,2.27,0,0,0,.91.14H446a2.3,2.3,0,0,0,.91-.14,1,1,0,0,0,.44-.49h2.61v5.83l-7.52,3.21H446a1.94,1.94,0,0,0,1-.16,1,1,0,0,0,.39-.57h2.61v5.51h-2.61a.85.85,0,0,0-.42-.47,2.31,2.31,0,0,0-.93-.14H435.07V610l7.07-3.28Z" fill="#231f20"/><path d="M449.92,631.49h-6.74v-3.72h2.52a1.36,1.36,0,0,0,.91-.22,1.14,1.14,0,0,0,.26-.82h-7.8a1.55,1.55,0,0,0-.92.2,1.32,1.32,0,0,0-.45.71h-2.63v-6.89h2.63a1.28,1.28,0,0,0,.43.7,1.69,1.69,0,0,0,.94.19h7.8a1.14,1.14,0,0,0-.26-.82,1.36,1.36,0,0,0-.91-.22h-2.52v-3.7h6.74Z" fill="#231f20"/><path d="M436.34,633.19h4v5.13h-.8a2.39,2.39,0,0,0-1.28.24,1,1,0,0,0-.33.84,1,1,0,0,0,.33.8,1.43,1.43,0,0,0,.94.29q1.13,0,1.77-2.49c.08-.32.15-.56.19-.73a8.06,8.06,0,0,1,1.6-3.51,3.59,3.59,0,0,1,2.54-.81,4.12,4.12,0,0,1,3.5,1.47,7.65,7.65,0,0,1,1.12,4.61,13.53,13.53,0,0,1-.4,3.37,11.38,11.38,0,0,1-1.21,3h-3.62v-5h.66a1.71,1.71,0,0,0,1.07-.28.92.92,0,0,0,.37-.8,1.13,1.13,0,0,0-.26-.8,1,1,0,0,0-.76-.27q-1,0-1.62,2.61l-.09.33c-.48,1.94-1,3.18-1.68,3.74a4.44,4.44,0,0,1-3,.84,4,4,0,0,1-3.49-1.54,7.93,7.93,0,0,1-1.14-4.72,14.93,14.93,0,0,1,.41-3.59A8.77,8.77,0,0,1,436.34,633.19Z" fill="#231f20"/><path d="M463.87,610.24c1.16-.77,1.73-2.22,1.73-4.28a9.29,9.29,0,0,0-1.83-5.41A9.45,9.45,0,0,0,459.3,597a4.7,4.7,0,0,0-4.5.28c-1.22.82-1.8,2.22-1.8,4.16a10.64,10.64,0,0,0,.13,1.35l4.95,1.8a5.46,5.46,0,0,1-.29-1.5,1,1,0,0,1,.39-.88,1.11,1.11,0,0,1,1,0,2.28,2.28,0,0,1,1,.82,2.18,2.18,0,0,1,.43,1.23.92.92,0,0,1-.48.91,1.6,1.6,0,0,1-1.3,0L453.25,603v5.14l5.94,2.17C461.15,611.05,462.7,611,463.87,610.24Z" fill="#e31f26"/><path d="M465.21,623.26V621.6a7.59,7.59,0,0,0-1.32-4.43,7,7,0,0,0-1.54-1.66,14.23,14.23,0,0,0-2.56-1.3,3.31,3.31,0,0,1-1.39-1,2.74,2.74,0,0,1-.36-1.54v-.46l-5.1-1.85v.88a7.57,7.57,0,0,0,.71,3.71,9.59,9.59,0,0,0,5,5.08,3,3,0,0,1,1.21.83,2.8,2.8,0,0,1,.28,1.53Z" fill="#e31f26"/><path d="M460.12,629.31l5.09,1.85v-2.07l4.45,1.63v-5.15l-9.8-3.57a6.59,6.59,0,0,0-4.13-.42,3.67,3.67,0,0,0-2,1.62,5.48,5.48,0,0,0-.71,2.83c0,.11,0,.39,0,.8l5,1.84c0-.91.14-1.45.45-1.59a2.11,2.11,0,0,1,1.52.16Z" fill="#e31f26"/><path d="M467.36,593.54c.08,1.13-.1,1.54-.49,1.61a4.12,4.12,0,0,1-1.81-.49v5l6,2.19V578.38s-1.7-.14-1.7,3.33v6.09l-.79-.29V581s-1.7-.11-1.7,2.68v3.94c-.19-.05-.39-.12-.62-.2l-.17-.07v-4.79s-1.7-.09-1.7,2.29v1.89l-.79-.29V584a1.67,1.67,0,0,0-1.7,1.81l-3.48-1.27a2.44,2.44,0,0,1-1.71-1.24l-3.1-1.13v7l3.1,1.13c.4-.54,1.05-.24,1.71,0l2.22.81v3.65L464,596v-3.66Z" fill="#e31f26"/><path d="M514.67,503.76a15,15,0,0,1-15,15H300.37a15,15,0,0,1-15-15L275,150.45a15,15,0,0,1,15-15H510a15,15,0,0,1,15,15Z" fill="#3e4758"/><path d="M317.13,334.83h31.65a9.87,9.87,0,0,1,9.87,9.87v8.63a9.86,9.86,0,0,1-9.86,9.86H317.12a9.86,9.86,0,0,1-9.86-9.86v-8.63A9.87,9.87,0,0,1,317.13,334.83Z" fill="#5d7893"/><path d="M425.7,353.32a9.87,9.87,0,0,1-9.87,9.87H384.18a9.87,9.87,0,0,1-9.87-9.87v-8.63a9.86,9.86,0,0,1,9.87-9.86h31.65a9.86,9.86,0,0,1,9.87,9.86Z" fill="#5d7893"/><path d="M451.23,334.83h31.65a9.87,9.87,0,0,1,9.87,9.87v8.63a9.86,9.86,0,0,1-9.86,9.86H451.22a9.86,9.86,0,0,1-9.86-9.86v-8.64A9.87,9.87,0,0,1,451.23,334.83Z" fill="#5d7893"/><path d="M317.13,378.94h31.65a9.87,9.87,0,0,1,9.87,9.87v8.63a9.87,9.87,0,0,1-9.87,9.87H317.12a9.86,9.86,0,0,1-9.86-9.86V388.8A9.87,9.87,0,0,1,317.13,378.94Z" fill="#5d7893"/><path d="M425.7,397.43a9.86,9.86,0,0,1-9.87,9.87H384.18a9.86,9.86,0,0,1-9.87-9.87V388.8a9.87,9.87,0,0,1,9.87-9.86h31.65a9.87,9.87,0,0,1,9.87,9.86Z" fill="#5d7893"/><path d="M492.74,397.43a9.86,9.86,0,0,1-9.86,9.87H451.23a9.86,9.86,0,0,1-9.87-9.87V388.8a9.87,9.87,0,0,1,9.87-9.86h31.65a9.86,9.86,0,0,1,9.86,9.86Z" fill="#5d7893"/><path d="M358.65,441.55a9.87,9.87,0,0,1-9.87,9.87H317.13a9.87,9.87,0,0,1-9.87-9.87v-8.63a9.87,9.87,0,0,1,9.87-9.87h31.65a9.87,9.87,0,0,1,9.87,9.87Z" fill="#5d7893"/><path d="M425.7,441.55a9.87,9.87,0,0,1-9.87,9.87H384.18a9.87,9.87,0,0,1-9.87-9.87v-8.63a9.87,9.87,0,0,1,9.87-9.87h31.65a9.87,9.87,0,0,1,9.87,9.87Z" fill="#5d7893"/><path d="M492.74,441.55a9.86,9.86,0,0,1-9.86,9.87H451.23a9.87,9.87,0,0,1-9.87-9.87v-8.63a9.87,9.87,0,0,1,9.87-9.87h31.65a9.86,9.86,0,0,1,9.86,9.87Z" fill="#5d7893"/><path d="M317.13,467.17h31.65a9.87,9.87,0,0,1,9.87,9.87v8.63a9.87,9.87,0,0,1-9.87,9.87H317.12a9.86,9.86,0,0,1-9.86-9.86V477A9.87,9.87,0,0,1,317.13,467.17Z" fill="#ff5e4c"/><path d="M384.18,467.17h31.65A9.87,9.87,0,0,1,425.7,477v8.63a9.87,9.87,0,0,1-9.87,9.87H384.17a9.86,9.86,0,0,1-9.86-9.86V477A9.87,9.87,0,0,1,384.18,467.17Z" fill="#ffcc3b"/><path d="M492.74,485.66a9.86,9.86,0,0,1-9.86,9.87H451.23a9.87,9.87,0,0,1-9.87-9.87V477a9.86,9.86,0,0,1,9.87-9.86h31.65a9.85,9.85,0,0,1,9.86,9.86Z" fill="#37d36f"/><path d="M492.74,291.3a16,16,0,0,1-16,16H323.27a16,16,0,0,1-16-16V178.5a16,16,0,0,1,16-16H476.73a16,16,0,0,1,16,16Z" fill="#37d36f"/><g opacity="0.51"><path d="M345.63,297.13H334.82a17.4,17.4,0,0,1-17.38-17.38v-14.7a3.78,3.78,0,1,1,7.56,0v14.7a9.83,9.83,0,0,0,9.82,9.81h10.81a3.79,3.79,0,0,1,0,7.57Z" fill="#fff"/><path d="M373.93,297.13H361.07a3.79,3.79,0,0,1,0-7.57h12.86a3.79,3.79,0,1,1,0,7.57Z" fill="#fff"/></g><g opacity="0.51"><path d="M478.82,205a3.79,3.79,0,0,1-3.79-3.78V190a9.83,9.83,0,0,0-9.81-9.82H454.41a3.78,3.78,0,1,1,0-7.56h10.81A17.4,17.4,0,0,1,482.6,190v11.2A3.78,3.78,0,0,1,478.82,205Z" fill="#fff"/><path d="M439,180.22H426.1a3.78,3.78,0,0,1,0-7.56H439a3.78,3.78,0,0,1,0,7.56Z" fill="#fff"/></g><rect x="318.32" y="518.79" width="163.36" height="10.54" fill="#3e4758" opacity="0.12"/><path d="M357.6,198.57h4.31v19.51H357.6Z" fill="#fff"/><path d="M366,198.57h3l4,9.4v-9.4h3.56v19.51h-2.91l-4-10.11v10.11H366Z" fill="#fff"/><path d="M381.78,216.89a7.12,7.12,0,0,1-1.46-4.71l3.69-.55a6.27,6.27,0,0,0,.44,2.66,1.35,1.35,0,0,0,1.27.81c.72,0,1.08-.48,1.08-1.42a3.56,3.56,0,0,0-.52-2,8.13,8.13,0,0,0-1.62-1.76L383,208.49a8.56,8.56,0,0,1-1.94-2.25,5.55,5.55,0,0,1-.69-2.83,4.85,4.85,0,0,1,1.46-3.78,5.76,5.76,0,0,1,4-1.33c1.85,0,3.11.54,3.77,1.62a7.74,7.74,0,0,1,1.08,3.92l-3.71.46a8.58,8.58,0,0,0-.28-2.18,1,1,0,0,0-1-.66,1,1,0,0,0-.86.47,1.89,1.89,0,0,0-.3,1,2.92,2.92,0,0,0,.45,1.66,8.31,8.31,0,0,0,1.43,1.54L388,207.6a10.13,10.13,0,0,1,2.24,2.61,6.36,6.36,0,0,1,.79,3.25,4.91,4.91,0,0,1-.64,2.49,4.55,4.55,0,0,1-1.79,1.77,5.29,5.29,0,0,1-2.68.65A5.36,5.36,0,0,1,381.78,216.89Z" fill="#fff"/><path d="M396.1,201.77h-2.94v-3.2h10.19v3.2h-2.91v16.31H396.1Z" fill="#fff"/><path d="M408.15,198.57h4.91l3.64,19.51h-4l-.65-4.12h-2.86l-.68,4.12h-4.07Zm3.51,12.82-1-7.62-1,7.62Z" fill="#fff"/><path d="M419.88,198.57h3l4,9.4v-9.4h3.57v19.51h-2.92l-4-10.11v10.11h-3.69Z" fill="#fff"/><path d="M436.36,201.77h-2.94v-3.2h10.19v3.2h-2.92v16.31h-4.33Z" fill="#fff"/><path d="M369.59,245.8a7.12,7.12,0,0,1-1.46-4.71l3.69-.55a6.27,6.27,0,0,0,.44,2.66,1.35,1.35,0,0,0,1.27.81c.72,0,1.08-.48,1.08-1.42a3.56,3.56,0,0,0-.52-2,8.14,8.14,0,0,0-1.62-1.75l-1.69-1.47a8.57,8.57,0,0,1-1.94-2.26,5.55,5.55,0,0,1-.69-2.83,4.85,4.85,0,0,1,1.46-3.78,5.76,5.76,0,0,1,4-1.33c1.85,0,3.11.54,3.77,1.62a7.78,7.78,0,0,1,1.08,3.93l-3.71.45a8.66,8.66,0,0,0-.28-2.18,1,1,0,0,0-1-.66,1,1,0,0,0-.86.47,1.89,1.89,0,0,0-.3,1,2.92,2.92,0,0,0,.45,1.66,8,8,0,0,0,1.43,1.54l1.61,1.42a9.75,9.75,0,0,1,2.24,2.61,6.27,6.27,0,0,1,.8,3.25,4.89,4.89,0,0,1-.64,2.49,4.55,4.55,0,0,1-1.79,1.77,6.27,6.27,0,0,1-6.83-.83Z" fill="#fff"/><path d="M381.36,227.48H385l1.15,11.37,1.47-11.35h2.87l1.54,11.28,1.18-11.3h3.62L394.51,247h-3.76l-1.66-11.78L387.52,247h-3.8Z" fill="#fff"/><path d="M400.17,227.48h4.31V247h-4.31Z" fill="#fff"/><path d="M408.6,227.48h6.56a4.85,4.85,0,0,1,3.85,1.46,6.19,6.19,0,0,1,1.28,4.2c0,2.09-.49,3.54-1.48,4.35a6.41,6.41,0,0,1-4.16,1.22h-1.73V247H408.6Zm5.76,8.22a1.65,1.65,0,0,0,1.51-.61,5.52,5.52,0,0,0,0-4c-.24-.42-.76-.62-1.54-.62h-1.42v5.18Z" fill="#fff"/><path d="M423.56,227.48h8.77v2.94h-4.45v4.84h3.39v3h-3.39v5.83h4.5V247h-8.82Z" fill="#fff"/><path d="M350,256.39h5.38a8.57,8.57,0,0,1,4.84,1.13c1.09.76,1.64,2.1,1.64,4a7.79,7.79,0,0,1-.51,3.1,3.58,3.58,0,0,1-1.88,1.81l2.68,9.45h-4.46l-2.14-8.75h-1.23v8.75H350Zm5.52,8.29a2.13,2.13,0,0,0,1.82-.69,3.36,3.36,0,0,0,.52-2.06,3.42,3.42,0,0,0-.48-2,2,2,0,0,0-1.67-.66h-1.39v5.4Z" fill="#fff"/><path d="M365.62,256.39h8.77v2.94h-4.45v4.84h3.39v3h-3.39V273h4.5v2.92h-8.82Z" fill="#fff"/><path d="M376.8,256.39h3.67l1.15,11.37,1.47-11.35H386l1.54,11.28,1.18-11.3h3.61L390,275.91H386.2l-1.66-11.79L383,275.91h-3.81Z" fill="#fff"/><path d="M397.84,256.39h4.91l3.64,19.52h-4l-.65-4.12h-2.87l-.67,4.12h-4.07Zm3.51,12.82-1-7.62-1,7.62Z" fill="#fff"/><path d="M409.57,256.39h5.37a8.54,8.54,0,0,1,4.84,1.13c1.1.76,1.64,2.1,1.64,4a8,8,0,0,1-.5,3.1,3.62,3.62,0,0,1-1.88,1.81l2.67,9.45h-4.46l-2.14-8.75h-1.23v8.75h-4.31Zm5.52,8.29a2.12,2.12,0,0,0,1.81-.69,3.36,3.36,0,0,0,.52-2.06,3.42,3.42,0,0,0-.48-2,1.93,1.93,0,0,0-1.66-.66h-1.4v5.4Z" fill="#fff"/><path d="M425.23,256.39h4.94a10,10,0,0,1,3.95.63,3.71,3.71,0,0,1,2,2,9,9,0,0,1,.59,3.58v7.08a9.17,9.17,0,0,1-.59,3.61,3.83,3.83,0,0,1-2,2,9.44,9.44,0,0,1-3.91.66h-5Zm5,16.53a2.64,2.64,0,0,0,1.38-.28,1.21,1.21,0,0,0,.57-.79,7.34,7.34,0,0,0,.12-1.53v-8.51a5.68,5.68,0,0,0-.14-1.43,1.13,1.13,0,0,0-.57-.74,3.07,3.07,0,0,0-1.39-.24h-.65v13.52Z" fill="#fff"/><path d="M441.57,274.71a7.16,7.16,0,0,1-1.45-4.71l3.68-.55a6.37,6.37,0,0,0,.45,2.66,1.35,1.35,0,0,0,1.26.81c.73,0,1.09-.48,1.09-1.42a3.56,3.56,0,0,0-.52-2,8.22,8.22,0,0,0-1.63-1.75l-1.68-1.47a8.57,8.57,0,0,1-1.94-2.26,5.52,5.52,0,0,1-.69-2.83,4.85,4.85,0,0,1,1.46-3.78,5.75,5.75,0,0,1,4-1.32c1.85,0,3.1.53,3.77,1.61a7.78,7.78,0,0,1,1.07,3.93l-3.71.45a8.3,8.3,0,0,0-.27-2.18,1.06,1.06,0,0,0-1.86-.19,1.89,1.89,0,0,0-.3,1.05,3,3,0,0,0,.44,1.66,8.11,8.11,0,0,0,1.44,1.54l1.61,1.43A9.75,9.75,0,0,1,450,268a6.37,6.37,0,0,1,.8,3.25,5,5,0,0,1-.64,2.49,4.57,4.57,0,0,1-1.8,1.77,5.28,5.28,0,0,1-2.67.65A5.39,5.39,0,0,1,441.57,274.71Z" fill="#fff"/></g></svg>