<svg xmlns="http://www.w3.org/2000/svg" viewBox="0 0 318 180"><title>fast_trac-logo-2_1</title><g id="9ad6b1ba-604a-4a90-93bb-2b1334d74fe3" data-name="Fast Trac Logo 3"><g id="6de22d03-3293-4b7d-8ca4-ebfc6fe47e4b" data-name="Flag"><path d="M132.58,40.12C116,49.83,80.37,54.85,80.37,54.85L72.77,46C52.53,41,29,47.62,15.1,52.83L12.33,51,8,50.8l-4.3,1L0,54.27l3.1,3.91.68,5.08s4.14,5.15,12.35,17S29.6,104.46,30.4,105.49a34.42,34.42,0,0,0,4.11,3.41l1.81,4.49,1.18,1.18,11.07,28.16,1-.61L37.51,111l2.17-.92L51.39,141,53,140l-9.68-34.65c18.2-12,43.63-19,43.63-19v4.56a15.35,15.35,0,0,0,10.26,5.33C115.53,97,131,91.61,141.4,87c6.61-2.94,11.92-5.79,11.92-5.79C131.9,56.89,132.58,40.12,132.58,40.12Zm-4.24,4.56,1.93,2.72,1,4.68L122,55.15l-4.19-6.07A81.13,81.13,0,0,0,128.34,44.68ZM99.22,61.6l-6.12-6,12.52-3.32,4.5,6.63s-1.3.38-3.05.86h0c-1.38.4-2.78.75-4.18,1.07s-2.66.6-3.62.73h-.06l2.71,2.69,3.52,4.44,0,0-1.21.29-3.74.92-4.71-2.21-7.34-5.05L99.23,61.6h0ZM88.76,68.94h0l.69,0c1,0,2.19,0,3.7-.06h.92l16.46,7.06,1.78,1,.08,1.09h0l-2.71-1.53L102.91,74l-.24,0-.34,0h0l-7.07,1.09-5.35-3.66-4.39-2.32A19.75,19.75,0,0,1,88.76,68.94ZM41.42,56.38l8.25-1.1-8.12-7.19,7.34-1.29,8.44-.74,7.58,7.15,4.43-.47.75.18v0l3.31.8,3.31.78a42.23,42.23,0,0,1,7,6.62h0l0,0A38.7,38.7,0,0,0,76.49,61h0c-.57.05-1.14.11-1.71.19l-9.86-8-7.2.53-8,1.54,8.38,8.41L47.16,66.11l-6.43,2.7s-6.89-6.83-9-8.88Zm-36.68.79-2.1-2.58.8-1.29,2.33-.53,4.9,1.8C8.06,55.65,6,56.56,4.74,57.17Zm7.73,12.06h0l2-2,4.69-1.77-4.27-5.41-3.42-3.24s8-3.56,13.4-5.31L31.73,60l-7.08,1.9L19.2,65.47l8.45,8.31h0l-8.4,4.8ZM37.07,94,32,99.44l-2.68-7-3-3.61,4-3.37,5.12-2.9s3.06,5.2,6,9.67Zm19.07-.75L47.22,98.9h0l-3.27-2.62L42,92.78l6.59-5.64L58,84.32h0l2.73,3L64.06,91Zm8.19-12.09L58,84.32a68.28,68.28,0,0,1-8.17-7.51l-9.53,2.78-4.94,3-6.21-8.6,3.49-2.35,3-1.07h0l5-1.72,5.47,4.87h0L48.73,76l2.42-.77h0l8.43-2.69L67,71.1l-8.9-7.42,7.11-1.5,8.61-.54s5.2,4.58,9,7.23l-6.4.49L67,71.1,76.45,78,65,80.8l-.7.36ZM97.64,93.57l-5-2.72L91.07,89.4l1.61-1.71,5.76,3,1,3.42Zm-.74-10L95.25,85h0l-1.48,1.28-2-1.56,2.87-.85,2.28-.29Zm-1.32-1.48L84.32,84.16,84.15,84l-7.7-6,10.22-1.9,8.6-.94,5.4,3.65.66,2.74Zm7.92,4.77L100.68,83l9.11-1.42h0l.92.11h0l.77.09-2.7,2.34-2.23,1.12-2.63,1.34h0Zm15.13,6.29-2.62,1-.88.35-6.07.93-3.82-3.5,1-2.66,6.07-1.06,6.36,4.93h0Zm-4.9-6.67L112,84.74h0l2.53-1.7,2.21-3h0l4.72,3.7h0l0,0Zm5.88-11.79-5.87,1.78-6.21-7.68,8.93-2.22-2.17-2.85-.23-.51-1.28-2.88h0l-.58-1.35A89.5,89.5,0,0,0,122,55.18a26.89,26.89,0,0,1,4.7,7.39c-2,1.13-10.24,4-10.24,4l5.89,7.35Zm14.71,4.19L129.23,81l5.45,6.43-6.52,2.63-5.36-6.32L129.23,81l-4.75-6.83,2.61-.67h0l2.63-.67,2.93-1.49s-3-4.74-3.35-5.31-1.45-3-1.45-3l7.24-2.51s3.28,5.27,5.56,8.16l-7.08,3.47,3.6,5.5-2.86,1.21Zm15.25,2.07c-.75.33-6.69,2.55-6.69,2.55h0l-1.35-1.64h0l-2.76-3.34,6.76-2.63L151.34,80l-1.71.89Z" fill="#231f20"/><polygon points="116.76 80.04 114.55 83.02 116.76 80.05 116.76 80.04" fill="#fff"/><polygon points="112.27 88.17 118.62 93.1 118.63 93.09 112.27 88.17" fill="#fff"/><polygon points="40.71 68.81 35.73 70.53 46.18 73.69 40.71 68.81" fill="#fff"/><path d="M47.16,66.11l10.89-2.42-8.38-8.41-8.25,1.1-9.68,3.55c2.1,2,9,8.88,9,8.88Z" fill="#fff"/><polygon points="113.72 86.4 112.03 84.73 112.02 84.73 113.73 86.44 121.5 83.77 121.46 83.74 113.72 86.4" fill="#fff"/><polygon points="109.06 95.38 105.23 91.89 109.06 95.39 115.14 94.45 116.01 94.11 115.14 94.45 109.06 95.38" fill="#fff"/><polygon points="100.72 83.04 109.8 81.63 109.79 81.62 100.68 83.04 103.5 86.82 103.91 86.61 103.3 86.5 100.72 83.04" fill="#fff"/><polygon points="106.56 85.28 108.79 84.16 111.5 81.82 110.72 81.73 107.05 85.03 106.56 85.28" fill="#fff"/><polygon points="64.91 53.21 57.33 46.06 48.89 46.8 41.55 48.09 49.67 55.28 57.71 53.74 64.91 53.21" fill="#fff"/><path d="M142.88,83.46s5.94-2.22,6.69-2.55c-.74.33-6.6,2.52-6.69,2.55Z" fill="#fff"/><path d="M145.53,75.85l-6.76,2.63,2.76,3.34c3.19-.51,7.2-1.56,9.36-2.14l.43.31-1.69.89,1.71-.89Z" fill="#fff"/><path d="M133.57,72.13l7.08-3.47c-2.28-2.89-5.56-8.16-5.56-8.16L127.85,63s1.15,2.45,1.45,3,3.35,5.31,3.35,5.31l-2.93,1.49-2.63.67,4.55,4.28,2.67,1.07,2.86-1.21Z" fill="#fff"/><path d="M122,55.18a89.5,89.5,0,0,1-9.77,3.76l.58,1.35,2.25.2,3.24,2.27,1.71,2.5c-2,.68-3.55,1.25-3.55,1.25l-2.17-2.84-.23-.5.23.51,2.17,2.85s8.21-2.83,10.24-4A26.89,26.89,0,0,0,122,55.18Z" fill="#fff"/><path d="M17.28,63l3.56,1.33-1.65,1.09,8.46,8.32h0L19.2,65.47l5.45-3.62L31.73,60l-6.84-8.44c-5.44,1.75-13.4,5.31-13.4,5.31l3.42,3.24,4.27,5.41h0Z" fill="#fff"/><polygon points="12.47 69.23 19.25 78.58 12.48 69.23 12.47 69.23" fill="#fff"/><polygon points="64.04 90.94 56.12 93.25 47.21 98.89 47.22 98.9 56.13 93.25 64.06 90.96 60.77 87.33 64.04 90.94" fill="#fff"/><polygon points="94.62 83.82 91.75 84.67 93.77 86.23 95.25 84.95 92.73 84.38 94.64 83.82 96.9 83.53 96.9 83.53 94.62 83.82" fill="#fff"/><path d="M93.25,68.86h0Z" fill="#fff"/><polygon points="76.45 78.01 66.95 71.1 59.59 72.5 51.16 75.19 59.43 77.68 64.33 81.16 65.03 80.8 76.45 78.01" fill="#fff"/><path d="M89.44,68.92c1,0,2.19,0,3.7-.06C91.63,68.87,90.42,68.89,89.44,68.92Z" fill="#fff"/><polygon points="104.28 69.05 105.48 68.76 105.46 68.73 105.48 68.76 104.28 69.05" fill="#fff"/><polygon points="102.67 74.03 102.91 73.99 102.9 73.99 102.67 74.03" fill="#fff"/><path d="M95.26,75.17l7.07-1.09L88.76,68.94a19.75,19.75,0,0,0-3.24.25l4.39,2.32Z" fill="#fff"/><path d="M83.69,61.1h0a42.23,42.23,0,0,0-7-6.62l-3.31-.78,3.31.8A42.17,42.17,0,0,1,83.69,61.1Z" fill="#fff"/><path d="M76.48,61l-5.21-5.67-1.18-2.42-.75-.18-4.43.47,9.86,8C75.34,61.12,75.91,61.06,76.48,61Z" fill="#fff"/><polygon points="99.23 61.6 99.23 61.6 88.49 62.71 95.83 67.76 88.5 62.71 99.23 61.6" fill="#fff"/><polygon points="112.36 77.99 112.38 78 112.3 76.91 110.52 75.91 112.28 76.91 112.36 77.99" fill="#fff"/><polygon points="58.03 84.31 48.63 87.14 58.04 84.32 58.03 84.31" fill="#fff"/><path d="M102.91,60.86c-1.2.27-2.41.52-3.62.73C100.25,61.46,101.55,61.19,102.91,60.86Z" fill="#fff"/><path d="M131.29,52.08l-1-4.68-1.93-2.72a81.13,81.13,0,0,1-10.53,4.4L122,55.15Z" fill="#fff"/><path d="M82.72,68.87c-3.75-2.65-9-7.23-9-7.23l-8.61.54-7.11,1.5L67,71.1l9.37-1.74Z" fill="#fff"/><path d="M89.19,81.16c.83-.23,8.44-1.77,11.48-2.34l-5.4-3.65-8.6.94L76.45,78l7.7,6-.35-.28A59.28,59.28,0,0,1,89.19,81.16Z" fill="#fff"/><path d="M107.07,59.79c1.75-.48,3.05-.86,3.05-.86l-4.5-6.63L93.1,55.62l6.12,6h0l-2.81-2.75Z" fill="#fff"/><polygon points="92.68 87.69 91.07 89.4 92.64 90.84 97.64 93.57 99.41 94.14 98.44 90.72 92.68 87.69" fill="#fff"/><path d="M100.67,78.82c-3,.57-10.65,2.11-11.48,2.34a59.28,59.28,0,0,0-5.39,2.59l.35.28.17.13,11.26-2.11,5.75-.49Z" fill="#c9cacc"/><polygon points="27.65 73.78 19.19 65.47 19.18 65.47 14.49 67.24 12.47 69.22 12.48 69.23 19.25 78.58 27.65 73.78 27.65 73.78" fill="#c9cacc"/><polygon points="17.28 63.04 19.19 65.47 20.84 64.37 17.28 63.04" fill="#c9cacc"/><polygon points="106.56 85.28 107.05 85.03 110.72 81.73 110.73 81.73 109.81 81.62 109.8 81.63 100.72 83.04 103.3 86.5 103.91 86.61 103.94 86.62 106.56 85.28" fill="#c9cacc"/><path d="M30.25,85.46l-4,3.37,3,3.61,2.68,7L37.07,94l4.3-1.77c-2.94-4.47-6-9.67-6-9.67Z" fill="#c9cacc"/><polygon points="92.73 84.38 95.25 84.95 95.25 84.95 96.9 83.53 96.9 83.53 94.64 83.82 92.73 84.38" fill="#c9cacc"/><path d="M51.16,75.19h0L48.73,76l-2.55-2.27h0L35.73,70.53h0l-3,1.07-3.49,2.35,6.21,8.6,4.94-3,9.53-2.78A68.28,68.28,0,0,0,58,84.32l6.3-3.16h0l-4.9-3.48Z" fill="#c9cacc"/><polygon points="64.04 90.94 60.77 87.33 58.04 84.31 58.04 84.32 48.63 87.14 42.04 92.78 43.93 96.28 47.2 98.9 47.21 98.89 56.12 93.25 64.04 90.94" fill="#c9cacc"/><polygon points="88.5 62.71 95.83 67.76 100.54 69.97 104.28 69.05 105.48 68.76 105.46 68.73 101.94 64.29 99.23 61.6 99.23 61.6 88.5 62.71" fill="#c9cacc"/><path d="M76.48,61h0a38.7,38.7,0,0,1,7.22.11l0,0a42.17,42.17,0,0,0-7-6.6l-3.31-.8-3.31-.8v0l1.18,2.42Z" fill="#c9cacc"/><polygon points="127.09 73.49 127.09 73.49 124.48 74.16 129.24 80.99 134.32 78.84 134.31 78.84 131.64 77.77 127.09 73.49" fill="#c9cacc"/><polygon points="121.46 83.74 121.48 83.74 116.76 80.04 116.76 80.05 114.55 83.02 112.02 84.72 112.03 84.73 113.72 86.4 121.46 83.74" fill="#c9cacc"/><polygon points="128.16 90.05 134.68 87.42 129.24 80.99 122.81 83.73 128.16 90.05" fill="#c9cacc"/><path d="M150.89,79.68c-2.16.58-6.17,1.63-9.36,2.14h0l1.35,1.64h0c.09,0,6-2.22,6.69-2.55l.06,0,1.69-.89Z" fill="#c9cacc"/><path d="M102.33,74.08l.34,0,.23,0h0l6.75,2.48L112.37,78h0l-.09-1.08-1.76-1L94.06,68.85h-.92c-1.51,0-2.72,0-3.7.06l-.69,0h0l13.57,5.14Z" fill="#c9cacc"/><path d="M116.46,66.51s1.59-.57,3.55-1.25l-1.71-2.5-3.24-2.27-2.25-.2h0l1.28,2.88.23.5Z" fill="#c9cacc"/><polygon points="107.53 68.75 113.74 76.43 119.61 74.65 122.35 73.88 116.46 66.53 107.53 68.75" fill="#c9cacc"/><path d="M99.29,61.59c1.21-.21,2.42-.46,3.62-.73,1.4-.32,2.8-.67,4.18-1.07h0l-10.65-.94,2.81,2.75h.06Z" fill="#c9cacc"/><polygon points="106.2 89.23 105.23 91.89 109.06 95.38 115.14 94.45 116.01 94.11 118.63 93.11 118.62 93.1 112.27 88.17 106.2 89.23" fill="#c9cacc"/><path d="M3.44,53.3l-.8,1.29,2.1,2.58c1.29-.61,3.32-1.52,5.93-2.6l-4.9-1.8Z" fill="#f89c57"/><polygon points="37.51 110.99 49.57 142.12 49.57 142.12 51.4 140.99 51.4 140.99 39.68 110.07 37.51 110.99" fill="#f89c57"/></g><g id="9a60e59c-2ba9-4f19-a4e7-ed82e18132cc" data-name="Fast"><polygon points="37.48 77.84 80.05 77.84 80.05 92.04 54.77 92.04 54.77 103.55 76.36 103.55 76.36 116.89 54.77 116.89 54.77 143.88 37.48 143.88 37.48 77.84" fill="#ffc425"/><path d="M101.94,124.78v17a19.6,19.6,0,0,1-3.5.44,15.83,15.83,0,0,1-12.94-6.19,25.53,25.53,0,0,1,0-30.84,15.88,15.88,0,0,1,12.74-6.32,16,16,0,0,1,13.17,6c3.16,4,4.78,9.33,4.78,16.08v20.45H102.52V122a7.87,7.87,0,0,0-1.2-4.48,3.37,3.37,0,0,0-2.94-1.64,3.72,3.72,0,0,0-2.88,1.48A5.72,5.72,0,0,0,94.31,121a5.4,5.4,0,0,0,1.07,3.49,3.28,3.28,0,0,0,2.74,1.36,9.48,9.48,0,0,0,3.76-1" fill="#ffc425"/><path d="M145.15,100.27v17.51c-2.05,0-3.34.31-3.85.94a8.32,8.32,0,0,0-1,4.17c-.58,8-3.59,13.7-8.81,17.13-1.73,1.68-4.79,2.47-9.27,2.47h-2.4V125H121a4.74,4.74,0,0,0,3.78-1.27,8.62,8.62,0,0,0,1.29-4.79,43.68,43.68,0,0,1,1-8.83,14.09,14.09,0,0,1,3-5.28c2.53-3,6.09-4.53,10.6-4.53h4.54" fill="#ffc425"/><path d="M160.88,84.93v15.34h5.55v17.51h-5.55a9.9,9.9,0,0,0,1,5.24c.7,1,2.28,1.54,4.73,1.54V142c-1.1,0-1.83.09-2.14.09a15.33,15.33,0,0,1-8.31-2.46,18.38,18.38,0,0,1-6.24-6.69C148,129.3,147,124.52,147,118.66V84.93h13.85" fill="#ffc425"/><path d="M54.77,144.72H37.46a.85.85,0,0,1-.85-.85h0v-66a.86.86,0,0,1,.85-.82H80a.86.86,0,0,1,.86.87h0V92a.85.85,0,0,1-.86.86H55.64v9.8H76.36a.85.85,0,0,1,.85.85h0v13.34a.84.84,0,0,1-.84.86H55.64v26.12a.85.85,0,0,1-.85.85ZM38.35,143H53.9V116.89a.85.85,0,0,1,.85-.85H75.47V104.4H54.77a.85.85,0,0,1-.84-.85V92a.85.85,0,0,1,.84-.85H79.2V78.69H38.35Z" fill="#231f20"/><path d="M98.48,142.83a16.41,16.41,0,0,1-13.39-6.41,26.09,26.09,0,0,1,0-31.59A16.5,16.5,0,0,1,98.26,98.3,16.67,16.67,0,0,1,112,104.55c3.29,4.17,5,9.71,5,16.45v20.45a.59.59,0,0,1-.58.59H102.5a.6.6,0,0,1-.44.4A19.52,19.52,0,0,1,98.48,142.83Zm-.15-43.35A15.43,15.43,0,0,0,86,105.57a24.92,24.92,0,0,0,0,30.11,15.32,15.32,0,0,0,12.44,6,16.76,16.76,0,0,0,2.92-.35V125.68a9.07,9.07,0,0,1-3.17.7,3.85,3.85,0,0,1-3.2-1.59,5.87,5.87,0,0,1-1.2-3.85,6.22,6.22,0,0,1,1.32-3.89,4.26,4.26,0,0,1,3.33-1.74,4,4,0,0,1,3.44,1.91,8.44,8.44,0,0,1,1.19,4.78v18.79h12.64V120.93c0-6.48-1.58-11.77-4.7-15.73a15.56,15.56,0,0,0-12.77-5.69Zm.15,17a3.08,3.08,0,0,0-2.39,1.27,5,5,0,0,0-1,3.16,4.72,4.72,0,0,0,.93,3.12,2.72,2.72,0,0,0,2.29,1.2,9.14,9.14,0,0,0,3.51-1H102v-2.15a7.33,7.33,0,0,0-1-4.16A2.81,2.81,0,0,0,98.48,116.51Z" fill="#231f20"/><path d="M122.23,143.07h-2.39a.6.6,0,0,1-.6-.58V125a.6.6,0,0,1,.6-.6H121a4.19,4.19,0,0,0,3.32-1,8,8,0,0,0,1.2-4.43,45.6,45.6,0,0,1,1-8.95,14.86,14.86,0,0,1,3.09-5.49c2.6-3.16,6.32-4.79,11.06-4.79h4.45a.6.6,0,0,1,.6.6v17.5a.61.61,0,0,1-.6.6c-2.54,0-3.21.51-3.39.72-.31.4-.73,1.38-.91,3.84-.57,8.07-3.59,14-9,17.55C130,142.22,126.88,143.07,122.23,143.07Zm-1.78-1.19h1.78c4.36,0,7.27-.75,8.87-2.3a.14.14,0,0,1,.09,0c5.1-3.36,8-9,8.53-16.68a8.57,8.57,0,0,1,1.19-4.5c.58-.72,1.77-1.09,3.72-1.2V100.86h-3.91a12.5,12.5,0,0,0-10.15,4.33,13.39,13.39,0,0,0-2.84,5,43.82,43.82,0,0,0-1,8.7,9.33,9.33,0,0,1-1.42,5.11,5.23,5.23,0,0,1-4.25,1.48h-.65Z" fill="#231f20"/><path d="M164.51,142.63a15.8,15.8,0,0,1-8.62-2.55,18.82,18.82,0,0,1-6.45-6.9c-2-3.77-3-8.65-3-14.52V84.93a.58.58,0,0,1,.59-.58h13.85a.58.58,0,0,1,.59.58h0V99.68h5a.58.58,0,0,1,.59.58h0v17.51a.61.61,0,0,1-.59.6h-5a8.33,8.33,0,0,0,.93,4.3c.57.87,2,1.3,4.24,1.3a.6.6,0,0,1,.6.58V142a.58.58,0,0,1-.58.58l-1.49.08Zm-16.88-57.1v33.13c0,5.68,1,10.37,2.85,14a17.72,17.72,0,0,0,6,6.47,14.67,14.67,0,0,0,8,2.39H166V125.15c-2.39-.08-3.88-.68-4.63-1.81a10.14,10.14,0,0,1-1.19-5.56.58.58,0,0,1,.58-.59h5V100.86h-4.95a.58.58,0,0,1-.6-.57V85.53Z" fill="#231f20"/></g><g id="7700789f-6c65-4829-b29b-f081d6b9d4c5" data-name="Trac"><polygon points="201.29 97.17 201.29 140.56 185.68 140.56 185.68 97.17 174.82 97.17 174.82 77.87 212.08 77.87 212.08 97.17 201.29 97.17" fill="#e31b23"/><path d="M236.16,94V113.5a8.94,8.94,0,0,0-3.26-1c-1.82,0-2.77,2-2.77,6.09v22H215.65V115.43c0-6.69,1.45-12,4.29-16a13.31,13.31,0,0,1,11.49-6,29.05,29.05,0,0,1,4.73.63" fill="#e31b23"/><path d="M259.79,122.1V141a19.17,19.17,0,0,1-3.69.51,16.34,16.34,0,0,1-13.54-6.88,27,27,0,0,1-5.46-17.19,27.28,27.28,0,0,1,5.49-17.08c3.59-4.78,8.12-7,13.38-7a16.43,16.43,0,0,1,13.82,6.6c3.31,4.45,5.07,10.37,5.07,17.94v22.74H260.35V119.13a9.32,9.32,0,0,0-1.2-4.95,3.45,3.45,0,0,0-3.08-1.83,3.77,3.77,0,0,0-3,1.64,6.44,6.44,0,0,0-1.25,3.91,6.27,6.27,0,0,0,1.13,3.91,3.4,3.4,0,0,0,2.86,1.51,9.33,9.33,0,0,0,3.95-1.2" fill="#e31b23"/><path d="M303.39,118.32c4.7-.23,9.43-.41,14.17-.64-.39,7.33-2.34,13.07-5.84,17.39a15.81,15.81,0,0,1-12.81,6.47c-5.3,0-9.84-2.39-13.45-7.11A27.65,27.65,0,0,1,280,117.08a26.45,26.45,0,0,1,5.56-16.75c3.59-4.66,8.1-6.94,13.24-6.94a15.92,15.92,0,0,1,12,5.46c3.41,3.73,5.61,8.69,6.47,15l-14.3.66c-1.1-1.93-2.46-2.88-4-2.88a3.69,3.69,0,0,0-3.09,1.61,6.55,6.55,0,0,0-1.19,4.14,6.72,6.72,0,0,0,1.26,4.2,3.89,3.89,0,0,0,3.25,1.66c1.86,0,3.29-1.64,4.2-4.92" fill="#e31b23"/><path d="M201.29,141.15H185.73a.59.59,0,0,1-.58-.59h0V97.77H174.82a.58.58,0,0,1-.58-.58V77.87a.57.57,0,0,1,.57-.59h37.27a.59.59,0,0,1,.6.59v19.3a.6.6,0,0,1-.6.6H201.89v42.79a.59.59,0,0,1-.59.59Zm-15-1.2H200.7V97.17a.59.59,0,0,1,.59-.58H211.5V78.46H175.42V96.59h10.25a.59.59,0,0,1,.6.58Z" fill="#231f20"/><path d="M230.1,141.15H215.62a.59.59,0,0,1-.58-.59h0V115.43c0-6.71,1.47-12.21,4.39-16.37a13.92,13.92,0,0,1,12-6.24,28.56,28.56,0,0,1,4.79.63.6.6,0,0,1,.48.59v19.5a.55.55,0,0,1-.84.49,8.12,8.12,0,0,0-3-.92c-1.8,0-2.18,3-2.18,5.51v21.94A.59.59,0,0,1,230.1,141.15ZM216.22,140h13.3V118.6c0-4.43,1.13-6.68,3.36-6.68a7.78,7.78,0,0,1,2.67.67V94.48a24.16,24.16,0,0,0-4.14-.52,12.65,12.65,0,0,0-11,5.74c-2.78,4-4.18,9.22-4.18,15.69Z" fill="#231f20"/><path d="M256.1,142.13a16.92,16.92,0,0,1-14-7.11,27.66,27.66,0,0,1-5.58-17.55A28,28,0,0,1,242.1,100c3.65-4.78,8.31-7.18,13.85-7.18a17,17,0,0,1,14.28,6.84c3.46,4.63,5.21,10.77,5.21,18.24v22.74a.58.58,0,0,1-.59.58H260.36a.58.58,0,0,1-.45.47A20.38,20.38,0,0,1,256.1,142.13ZM256,94c-5.14,0-9.49,2.29-12.91,6.77a26.4,26.4,0,0,0-5.36,16.75A26.55,26.55,0,0,0,243,134.33,15.82,15.82,0,0,0,256.1,141a17.09,17.09,0,0,0,3.1-.4V123a8.68,8.68,0,0,1-3.36.81,4,4,0,0,1-3.35-1.76,7,7,0,0,1-1.2-4.26,7.25,7.25,0,0,1,1.38-4.26,4.39,4.39,0,0,1,3.48-1.89,4.05,4.05,0,0,1,3.59,2.12,10,10,0,0,1,1.2,5.27V140h13.33V117.87c0-7.17-1.68-13.16-5-17.54A15.88,15.88,0,0,0,256,94Zm.13,18.87a3.19,3.19,0,0,0-2.53,1.42,6,6,0,0,0-1.14,3.59,5.73,5.73,0,0,0,1,3.59,2.81,2.81,0,0,0,2.39,1.28,8.8,8.8,0,0,0,3.68-1.07.49.49,0,0,1,.24,0v-2.47a8.73,8.73,0,0,0-1.07-4.64A2.89,2.89,0,0,0,256.1,112.85Z" fill="#231f20"/><path d="M298.91,142.13c-5.56,0-10.24-2.47-13.91-7.34a28.32,28.32,0,0,1-5.61-17.71,27.05,27.05,0,0,1,5.68-17.14c3.7-4.79,8.3-7.18,13.71-7.18a16.38,16.38,0,0,1,12.42,5.65,27.57,27.57,0,0,1,6.63,15.34.66.66,0,0,1-.13.45.6.6,0,0,1-.43.22l-14.36.65a.57.57,0,0,1-.54-.29c-1-1.7-2.14-2.58-3.46-2.58a3.13,3.13,0,0,0-2.62,1.38,6,6,0,0,0-1.07,3.78,6.15,6.15,0,0,0,1.13,3.83,3.29,3.29,0,0,0,2.78,1.45c1.58,0,2.8-1.51,3.59-4.49a.59.59,0,0,1,.55-.43c2.39-.12,4.79-.23,7.18-.32l6.94-.32a.56.56,0,0,1,.44.17.6.6,0,0,1,.17.46c-.38,7.44-2.33,13.24-6,17.72A16.45,16.45,0,0,1,298.91,142.13ZM298.78,94c-5,0-9.32,2.25-12.78,6.71a26,26,0,0,0-5.43,16.41,26.93,26.93,0,0,0,5.37,17c3.44,4.55,7.8,6.86,13,6.86a15.25,15.25,0,0,0,12.34-6.24c3.37-4.15,5.23-9.51,5.67-16.39l-6.28.27-6.8.31c-1,3.28-2.56,4.94-4.65,4.94a4.48,4.48,0,0,1-3.72-1.91,7.27,7.27,0,0,1-1.38-4.55,7.1,7.1,0,0,1,1.33-4.5A4.24,4.24,0,0,1,299,111c1.2,0,2.84.5,4.3,2.85l13.29-.61a26.23,26.23,0,0,0-6.22-14.06A15.27,15.27,0,0,0,298.78,94Z" fill="#231f20"/></g><g id="7dc6125c-c423-446b-8e03-b4d285aaa9ac" data-name="Reg"><path d="M302.83,83a6.62,6.62,0,0,1,.91-3.38,6.54,6.54,0,0,1,2.47-2.48,6.8,6.8,0,0,1,9.27,2.46,6.79,6.79,0,0,1,.91,3.4,6.65,6.65,0,0,1-.88,3.34,6.78,6.78,0,0,1-5.9,3.43,6.65,6.65,0,0,1-3.44-.93A6.74,6.74,0,0,1,302.83,83Zm.95,0a5.83,5.83,0,0,0,5.83,5.83,5.67,5.67,0,0,0,2.91-.78,5.78,5.78,0,0,0,2.13-2.12,5.65,5.65,0,0,0,.79-2.93,5.72,5.72,0,0,0-.78-2.91A6,6,0,0,0,312.54,78a5.79,5.79,0,0,0-5.84,0,5.78,5.78,0,0,0-2.13,2.12A5.59,5.59,0,0,0,303.78,83Zm8.58-1.64a2.24,2.24,0,0,1-.38,1.28,2.3,2.3,0,0,1-1.08.82L313,87h-1.51l-1.87-3.19h-1.21V87h-1.34V79h2.36a3.37,3.37,0,0,1,2.19.59A2.17,2.17,0,0,1,312.36,81.37Zm-3.91,1.36h1a1.72,1.72,0,0,0,1.16-.37,1.21,1.21,0,0,0,.44-1,1.13,1.13,0,0,0-.39-1,2,2,0,0,0-1.23-.29h-.95Z"/></g></g></svg>