<svg id="fa0529bc-0cd1-47be-8779-dd5c8c8cc70a" data-name="Layer 1" xmlns="http://www.w3.org/2000/svg" viewBox="0 0 1000 442.36"><title>fastpoints-logo</title><path d="M70.77,390q0,8.58,2.37,11.9t8.47,4.76v32.11H0V406.64a11.09,11.09,0,0,0,5.82-5.42q1.63-3.5,1.63-11.24V306q0-7.72-1.63-11.17A11.18,11.18,0,0,0,0,289.48V257.72H88.26q40.8,0,56.26,13.69T160,325.05q0,34.84-15.52,48.47T89.07,387.13H70.77Zm0-40.91H75q12.21,0,16.81-3.92t4.61-14.28V314.82q0-11.31-4.54-15.29t-16.88-4h-4.2Z" fill="#231f20"/><path d="M181.8,321.18q0-35.7,17.09-49.58t60.2-13.88q43,0,59.92,13.88T336,321.18V379q0,35.6-16.87,49.46t-60,13.88q-43.26,0-60.27-13.82T181.8,379Zm90,65.55V312.89q0-9.45-3-13.47c-2-2.69-5.25-4-9.76-4s-7.92,1.3-9.9,3.9-3,7.13-3,13.59v73.84q0,9.56,3,13.47c2,2.61,5.29,3.91,9.9,3.91s7.77-1.33,9.76-4S271.83,393,271.83,386.73Z" fill="#231f20"/><path d="M442,257.72v31.76a10.81,10.81,0,0,0-5.83,5.18Q434.52,298,434.52,306v84c0,5.39.54,9.21,1.62,11.42a11.3,11.3,0,0,0,5.83,5.24v32.11H362.25V406.64a12.22,12.22,0,0,0,6.1-5.6c1.18-2.37,1.77-6.07,1.77-11.06V306q0-7.5-1.77-11.06a11.72,11.72,0,0,0-6.1-5.47V257.72Z" fill="#231f20"/><path d="M523.32,390q0,8.68,1.69,11.95a9.82,9.82,0,0,0,6,4.71v32.11H465V406.64a12.34,12.34,0,0,0,6-5.6c1.17-2.37,1.76-6.07,1.76-11.06V306q0-7.5-1.76-11.06a11.81,11.81,0,0,0-6-5.47V257.72h71l39.19,91.59V306c0-5.71-.67-9.61-2-11.71s-3.64-3.71-7-4.82V257.72h67.24v31.76a10.85,10.85,0,0,0-5.83,5.18c-1.09,2.25-1.62,6-1.62,11.35V438.75H563.31l-40-86.24Z" fill="#231f20"/><path d="M825.65,257.72v82.19H780.37V309.1q0-8.09-2.71-11t-10-3.26V390c0,5.24.8,9,2.43,11.24s4.52,4.07,8.68,5.42v32.11H694.82V406.64q6.09-1.9,8.47-5.24c1.58-2.21,2.37-6,2.37-11.42V294.84q-7.32.35-10,3.26t-2.71,11v30.81h-45V257.72Z" fill="#231f20"/><path d="M846.39,423.24V374.48H908.9v9.8q0,11.43,2.91,15.51t10.24,4.08q6.23,0,9.76-4.08t3.52-11.43q0-13.75-30.37-21.58-5.82-1.51-8.81-2.33-32.94-9-42.84-19.48t-9.9-30.91q0-29.06,18-42.69t56.13-13.65a168.33,168.33,0,0,1,41.08,4.84A139.87,139.87,0,0,1,995,277.32v44.09H934.52v-8.05c0-5.67-1.13-10-3.39-13s-5.51-4.5-9.76-4.5-7.59,1.05-9.76,3.15-3.26,5.22-3.26,9.34q0,11.89,31.73,19.71l4.06,1.05q35.4,8.85,45.63,20.52T1000,385.9q0,28.71-18.78,42.58t-57.55,13.88a180.17,180.17,0,0,1-43.72-5Q860.09,432.45,846.39,423.24Z" fill="#231f20"/><path d="M566.73,87.75c-9.42-14.19-27.07-21.12-52.23-21.12-22.74,0-44.74,7.38-65.92,22.34S413,122,405.18,143.39c-8.05,22.11-6.63,40.22,3.49,54.85,9.9,14.86,27.07,21.9,50.67,21.9a123,123,0,0,0,16.44-1.57l22-60.33c-7.9,2.46-14,3.58-18.32,3.58-5,0-8.73-1.57-10.69-4.81-2.05-3-2.26-7.15-.35-12.4,1.74-4.8,5.07-8.82,10-12.52,5-3.45,9.91-5.24,14.92-5.24,5.44,0,9.33,1.89,11.18,5.81s1.82,9.16-.62,15.86l-25,68.6h62.64l26.35-72.39C576.58,120.82,575.87,101.93,566.73,87.75Z" fill="#e21f26"/><path d="M725.41,71.44H705.1c-20.45,0-38.52,5.24-53.91,16.08-9,6.38-15.81,12.41-20.23,18.66s-9.78,16.65-15.82,31.28c-3.58,8.26-7.72,13.74-12,16.87s-10.64,4.47-18.79,4.47h-5.58l-22.61,62.11h10.73c20.16,0,35.2-2.79,45.22-8.7,28.16-12.18,49.12-32.41,62-60.67q5.16-11.22,10.09-14.74c3.1-2.24,9.37-3.36,18.67-3.36Z" fill="#e21f26"/><path d="M799.09,133.44l22.57-62H796.49l19.76-54.3H753.47L710,136.56c-7.57,20.8-9.09,37.55-5,50.39,3.34,10.06,10.12,17.76,19.69,23.7,9.76,5.79,21.15,8.7,34.45,8.7,1.43,0,4.8-.22,9.84-.33l22.4-61.57c-11.14,0-17.65-1.77-19.46-5.46s-1.17-9.73,2-18.55Z" fill="#e21f26"/><path d="M363.21,45.17c13.73-1,18.68,1.26,19.6,6,1.16,4.71-2.34,12.16-5.95,22.09h60.58L464.09,0H178.35s-1.65,20.74,40.59,20.74h74.23l-3.5,9.6H210.08s-1.33,20.74,32.64,20.74h48.07c-.62,2.23-1.48,4.73-2.49,7.5l-.76,2.1H229.13S228,81.41,257,81.41h23L276.5,91H247s-.9,19.92,22,20.7l-15.45,42.45c-2.89,8-5,15.89-15.18,20.85l-13.74,37.73h85.23L323.55,175c-6.59-5-2.9-12.9,0-20.85l9.85-27.06H378l15.1-41.46H348.48Z" fill="#e21f26"/></svg>