<svg xmlns="http://www.w3.org/2000/svg" viewBox="0 0 800 800"><title>fuel-pump-icon</title><g id="220667b5-a647-4e6d-8c87-86c4bd000d03" data-name="Fuel Pump Icon"><path d="M364.59,136.06a9.09,9.09,0,1,0,0,18.18h82.88V136.06Z" fill="#dc394d"/><path d="M530.34,136.06H447.47v18.18h82.87a9.09,9.09,0,0,0,0-18.18Z" fill="#e31b23"/><path d="M257.32,583.11l-2.86,0c-25.13-.71-42.9-9.86-52.82-27.21-23.52-41.14,3-118.94,32.85-173.06C271,316.6,256.8,250.75,256.65,250.09a4.12,4.12,0,0,1,8-1.82c.64,2.81,15.11,69.46-23,138.52-31.1,56.38-53.34,129.26-32.91,165,8.39,14.68,23.83,22.44,45.89,23.06,21,.57,36.06-5.91,44.7-19.31,23.38-36.28-3.91-113.17-8.63-122.84a4.12,4.12,0,0,1,3.71-5.93h58.25a4.13,4.13,0,1,1,0,8.25H300.46c7.49,20.39,29.45,88.39,5.85,125C296.42,575.34,279.94,583.11,257.32,583.11Z" fill="#31404f"/><path d="M271.17,264l.08,5.91a4.81,4.81,0,0,1-4.75,4.88l-6.66.09a4.81,4.81,0,0,1-4.88-4.75l-.08-5.9Z" fill="#212c36"/><path d="M284.64,262c-1.78-3.3-6.47-12.85-6.93-17.42a1.79,1.79,0,0,1,.56-1.45c2.28-2.63,9.41-4.18,10.9-4.25l-.08-4.82c-.95,0-10.41,1.37-14.37,5.82a6.65,6.65,0,0,0-1.8,5.19c.65,6.44,7.2,18.69,7.47,19.21Z" fill="#212c36"/><path d="M288.31,197.15l11.38-18.51,22.53-12.56-4.16-7.46-23.51,13.1a4.21,4.21,0,0,0-1.56,1.49l-12,19.46Z" fill="#aab2bd"/><path d="M250.35,221.24l.55,40.69a4.81,4.81,0,0,0,4.88,4.75l34.23-.46a4.82,4.82,0,0,0,4.75-4.88l-.55-40.7a4.82,4.82,0,0,0-4.88-4.75l-34.23.47A4.81,4.81,0,0,0,250.35,221.24Zm15.25,9.66a2.52,2.52,0,0,1,2.49-2.56l16.76-.23a2.52,2.52,0,0,1,2.56,2.49l.39,28.31a2.54,2.54,0,0,1-2.49,2.56l-16.77.22a2.52,2.52,0,0,1-2.56-2.48Z" fill="#e31b23"/><polygon points="250.38 223.25 244.44 214.5 250.97 199.52 273.17 187.86 294.37 201.25 294.23 222.65 250.38 223.25" fill="#212c36"/><path d="M274.76,191.41l3.17-4.61a2.49,2.49,0,0,1,3.46-.64L292.8,194a2.48,2.48,0,0,1,.64,3.45l-3.17,4.61Z" fill="#212c36"/><rect x="314.05" y="406.94" width="38.97" height="47.88" fill="#e31b23"/><rect x="327.33" y="349.31" width="120.14" height="275.57" fill="#ffc425"/><path d="M447.47,143.3H344.67a17.34,17.34,0,0,0-17.34,17.34V349.31H447.47Z" fill="#f9af0b"/><path d="M567.6,349.31V160.64a17.34,17.34,0,0,0-17.34-17.34H447.47v206Z" fill="#ffc425"/><rect x="447.47" y="349.31" width="120.14" height="275.57" fill="#f9af0b"/><path d="M447.47,181.37h-86.4a17.35,17.35,0,0,0-17.35,17.35v72.65H447.47Z" fill="#fefbff"/><path d="M447.47,262.87H343.72v31.26a17.35,17.35,0,0,0,17.35,17.35h86.4Z" fill="#fff"/><path d="M445.85,271.37h105.6v-72.9a17.34,17.34,0,0,0-17.34-17.34l-88.26.24Z" fill="#fff"/><path d="M446.23,262.87v48.61l87.88-.25a17.34,17.34,0,0,0,17.34-17.34v-31Z" fill="#fefbff"/><rect x="287.55" y="612.19" width="159.92" height="51.75" fill="#dc394d"/><rect x="447.47" y="612.19" width="159.92" height="51.75" fill="#e31b23"/><path d="M390.68,491.09a56.61,56.61,0,0,0,56.71,56.39V394.58S390.65,459.93,390.68,491.09Z" fill="#31404f"/><path d="M447.39,394.58v152.9h.12A56.62,56.62,0,0,0,504.25,491C504.23,459.85,447.39,394.58,447.39,394.58Z" fill="#212c36"/><path d="M423.9,509.11a10.69,10.69,0,0,1-10.69,10.69h0a10.69,10.69,0,0,1-10.69-10.69V497.32a10.69,10.69,0,0,1,10.69-10.69h0a10.69,10.69,0,0,1,10.69,10.69Z" fill="#3f5366"/><rect x="399.78" y="273.36" width="22.53" height="27.63" fill="#31404f"/><rect x="472.61" y="273.36" width="22.53" height="27.63" fill="#212c36"/><rect x="363.37" y="273.36" width="22.53" height="27.63" fill="#31404f"/><rect x="509.02" y="273.36" width="22.53" height="27.63" fill="#212c36"/><rect x="436.2" y="273.36" width="11.27" height="27.63" fill="#31404f"/><rect x="447.47" y="273.36" width="11.27" height="27.63" fill="#212c36"/><rect x="367.5" y="203.86" width="79.89" height="42.44" fill="#31404f"/><rect x="447.39" y="203.86" width="80.03" height="42.44" fill="#212c36"/></g></svg>