<svg xmlns="http://www.w3.org/2000/svg" xmlns:xlink="http://www.w3.org/1999/xlink" viewBox="0 0 450 300"><defs><linearGradient id="78f4f800-909b-432c-8cd6-6d5cb408c33f" x1="92.48" y1="201.5" x2="450" y2="201.5" gradientUnits="userSpaceOnUse"><stop offset="0" stop-color="#668eb0"/><stop offset="0.3" stop-color="#6990b1"/><stop offset="0.48" stop-color="#7195b3"/><stop offset="0.64" stop-color="#7f9db7"/><stop offset="0.77" stop-color="#94aabd"/><stop offset="0.89" stop-color="#aebac4"/><stop offset="1" stop-color="#ccc"/></linearGradient></defs><title>fuel-icon-red-wide</title><g style="isolation:isolate"><g id="5e589c7b-c264-4109-b9d4-098b1b1b3283" data-name="Fuel Red Wide"><g id="43786710-0a4b-4355-95cf-d8df4027e98e" data-name="4"><rect y="0.12" width="450" height="299.88" fill="#e31b23"/><g id="f97877e4-d874-49db-9c3a-ad24e729bfb8" data-name="4"><path d="M450,275.33V300H229.32c-15.32-16.23-33.77-38.5-34.58-38.77-1.34-.46-5.35-30.68-5.35-30.68L92.5,132.71c-.45-.92,4.91-12.18,4.91-12.18l49.12-15.34s46,.9,45.08.46c1,0,36.39-2.65,36.39-2.65l26.26,17.43,10.07,18.27Z" opacity="0.31" fill="url(#78f4f800-909b-432c-8cd6-6d5cb408c33f)" style="mix-blend-mode:multiply"/><path d="M247,260.4c-6.65-6.12-18.34-4.86-26.18-4.11-71,6.77-51.81-84.76,30.88-38.73,13.63,7.59,26.49,14.75,40.07,12.09,10.28-2,37.64-19.76-19.92-57.91-3.33-2.21-6.48-4.29-9.29-6.31l7.2-10c16.63,11.94,46.44,27.15,49.76,52.08,2,15.48-9.57,31.17-25.38,34.28-26.7,5.22-48.87-16.85-69.41-23.5-38.6-12.5-52.48,30.26-5.08,25.74,8.47-.81,24.76-2.76,35.71,7.32Z" fill="#263238"/><path d="M184.49,101.27,182.39,117l-43.24-.64c-12.26-.18-38.09,11-47.21,15.63-3.53-8-2.44-5.57-5-11.31,11.36-6.18,39-20.33,54.31-20.08l38,.56Z" fill="#37474f"/><path d="M179.23,101.18l-1.11,8.28-43.23-.64c-11.82-.19-37.17,12-45.87,16.54L87,120.7c11.36-6.18,39-20.33,54.31-20.08Z" fill="#455a64"/><path d="M219.16,158.37l.45.19a6.46,6.46,0,0,1,.62.31l.85.5,1.35.83c6.57,4,15.47,8.42,19,15.73,1.3,2.69,1.85,6.92.32,9.66-.74,1.34-3.42,5.14-5.2,3.88-1.57-1.12-.15-3.9.29-5.23,1.73-5.13-1.68-8-5.56-10.54-3.39-2.21-6.93-4.19-10.44-6.2-1.67-1-21.63,5.48-21.85,5.37,0,0,4.3-4.32,4.3-4.32-4.33-1.24,11.22-11.52,15.57-10.28Z" fill="#263238"/><path d="M232.07,133.86l-.21.28-6.44,8.29-22.28,28.69-.62.79-4.17,5.37-11.67-8.65c-7.06-5.25-19.94-21.27-18.08-30.88l5.24-14.22-26-1.81.66-4,.05-.31L150,109,151.81,98s21.33-2.76,39.08-2.83a50.71,50.71,0,0,1,29.56,9.06L230,111c5,3.5,6.84,9.89,5.32,16.06A18.72,18.72,0,0,1,232.07,133.86Z" fill="#f9af0b"/><path d="M280.14,158.51l-35.55-25a23.13,23.13,0,0,1-9.11-14.18A13.7,13.7,0,0,0,230,111l-9.56-6.72a50.71,50.71,0,0,0-29.56-9.06c-17.75.07-39.08,2.83-39.08,2.83L150,109l-1.41,8.45-.05.31,31.51,2-5.24,14.22c-1.86,9.61,11,25.63,18.09,30.88l9.63,7.14,2,1.51,4.79-6.17,18.15-23.36h0l42.08,29.57Z" fill="#ffc425"/><path d="M201.55,171.62l-3.7,5.22L235,203q.25.18.51.33c2.74,1.63,6.39,1.07,9.6-1Z" fill="#263238"/><path d="M249.3,198.15l18.44-26.07L223.3,140.85l-21.75,30.77,43.56,30.62A15.77,15.77,0,0,0,249.3,198.15Zm-16.14-5.73-25.48-17.9,16.73-23.66,24.84,17.28c3,2.07,3.65,6.63,1.58,11L247,187.24C244.21,193,237.53,195.5,233.16,192.42Z" fill="#37474f"/><g style="mix-blend-mode:overlay"><path d="M280.14,158.51l-4.32,6.1-70.25-49.37a43.36,43.36,0,0,0-27.2-7.65L150,109,151.81,98s21.33-2.76,39.08-2.83a50.71,50.71,0,0,1,29.56,9.06L230,111a13.69,13.69,0,0,1,5.44,8.25,23.77,23.77,0,0,0,9.25,14.4Z" fill="#bdbdbd"/></g><polygon points="276.74 178.05 269.79 173.15 279.49 159.43 286.45 164.32 276.74 178.05" fill="#455a64"/><path d="M209.17,136.48a12.21,12.21,0,1,1-14.23-9.79A12.22,12.22,0,0,1,209.17,136.48Z" fill="#b0bec5" style="mix-blend-mode:overlay"/><path d="M92.84,116.17a1.58,1.58,0,0,0-2.1-.56,1.42,1.42,0,0,0-.57,2l7.55,12.56a1.6,1.6,0,0,0,2.1.56,1.42,1.42,0,0,0,.58-2Z" fill="#4b6068"/><path d="M100.86,111.73a1.5,1.5,0,0,0-2.08-.53,1.59,1.59,0,0,0-.52,2.14l7.7,13.11a1.5,1.5,0,0,0,2.09.53,1.59,1.59,0,0,0,.52-2.14Z" fill="#4b6068"/><path d="M110.22,107.71a1.59,1.59,0,0,0-2.83,1.45l7.15,14a1.59,1.59,0,1,0,2.83-1.45Z" fill="#4b6068"/><path d="M119.91,104.25a1.59,1.59,0,1,0-3,1.14l5.65,14.66a1.59,1.59,0,1,0,3-1.14Z" fill="#4b6068"/><path d="M129.16,102a1.59,1.59,0,0,0-3.07.86L130.31,118a1.59,1.59,0,1,0,3.07-.85Z" fill="#4b6068"/><path d="M140.15,100a1.57,1.57,0,0,0-1.77-1.29h0a1.51,1.51,0,0,0-1.35,1.68l2.26,16a1.56,1.56,0,0,0,1.77,1.29h0A1.51,1.51,0,0,0,142.4,116Z" fill="#4b6068"/></g></g></g></g></svg>