<svg xmlns="http://www.w3.org/2000/svg" xmlns:xlink="http://www.w3.org/1999/xlink" viewBox="0 0 450 300"><defs><linearGradient id="8ec47a10-3d2f-4736-8eac-2f2005a55d3b" x1="111.64" y1="209.5" x2="450" y2="209.5" gradientUnits="userSpaceOnUse"><stop offset="0" stop-color="#668eb0"/><stop offset="0.3" stop-color="#6990b1"/><stop offset="0.48" stop-color="#7195b3"/><stop offset="0.64" stop-color="#7f9db7"/><stop offset="0.77" stop-color="#94aabd"/><stop offset="0.89" stop-color="#aebac4"/><stop offset="1" stop-color="#ccc"/></linearGradient></defs><title>store-icon-wide</title><g style="isolation:isolate"><g id="c0729153-4d7b-4177-af10-53da9ed61fa8" data-name="Store Wide"><rect width="450" height="300" fill="#e31b23"/><path d="M450,246v54l-191.55-.72L111.64,234.37c0-.07,36.32-1.87,36.31-4.61,0-9.45.06-30.13.06-30.13V119h145.4l-.18,72.76Z" opacity="0.31" fill="url(#8ec47a10-3d2f-4736-8eac-2f2005a55d3b)" style="mix-blend-mode:multiply"/><path d="M298.27,191.86A17.27,17.27,0,0,0,281,209.13v22.63h34.55V209.13A17.28,17.28,0,0,0,298.27,191.86Z" fill="#388e3c"/><circle cx="319.27" cy="217.53" r="12.06" fill="#2e7d32"/><circle cx="125.31" cy="221.56" r="8.03" transform="translate(-76.64 66.62) rotate(-23.01)" fill="#1b5e20"/><circle cx="143.11" cy="213.01" r="16.58" transform="translate(-96.76 304.21) rotate(-76.92)" fill="#2e7d32"/><rect x="111.64" y="225.15" width="226.72" height="9.22" fill="#434343"/><rect x="149.63" y="130.54" width="150.73" height="94.61" fill="#ff7043"/><path d="M300.79,219.43H286.42v5.72h16v-4.07A1.65,1.65,0,0,0,300.79,219.43Z" fill="#f5f5f5"/><rect x="244.07" y="156.72" width="42.35" height="68.43" fill="#3e2723"/><rect x="246.58" y="159.24" width="37.32" height="63.4" fill="#80cbc4"/><polygon points="283.9 174.92 283.9 178.81 264.32 159.24 268.21 159.24 283.9 174.92" fill="#b2dfdb"/><polygon points="283.9 213.14 283.9 217.03 246.58 179.71 246.58 175.83 283.9 213.14" fill="#b2dfdb"/><polygon points="283.9 180.88 283.9 188.66 254.48 159.24 262.26 159.24 283.9 180.88" fill="#b2dfdb"/><rect x="246.58" y="159.24" width="37.32" height="1.35" fill="#212121" opacity="0.2" style="mix-blend-mode:multiply"/><polygon points="244.07 209.9 244.07 225.15 259.32 225.15 244.07 209.9" fill="#212121" opacity="0.4" style="mix-blend-mode:multiply"/><path d="M252.71,186.49a1.61,1.61,0,1,1-1.61-1.6A1.61,1.61,0,0,1,252.71,186.49Z" fill="#e0e0e0"/><path d="M252.71,198a1.61,1.61,0,1,1-1.61-1.61A1.61,1.61,0,0,1,252.71,198Z" fill="#e0e0e0"/><path d="M251.1,185.24a.92.92,0,0,0-.92.92v12.19a.92.92,0,1,0,1.84,0V186.16A.92.92,0,0,0,251.1,185.24Z" fill="#f5f5f5"/><path d="M152.12,219.43h91.95a0,0,0,0,1,0,0v5.72a0,0,0,0,1,0,0H147.56a0,0,0,0,1,0,0V224A4.56,4.56,0,0,1,152.12,219.43Z" fill="#f5f5f5"/><rect x="149.44" y="124.55" width="151.11" height="2.77" fill="#bdbdbd"/><rect x="149.44" y="119" width="151.11" height="2.77" fill="#bdbdbd"/><rect x="151.3" y="121.78" width="147.4" height="2.77" fill="#ff7043"/><rect x="151.3" y="121.78" width="147.4" height="1.39" fill="#212121" opacity="0.4" style="mix-blend-mode:multiply"/><rect x="273.15" y="151.1" width="8.46" height="3.29" fill="#ff490f"/><rect x="283.82" y="151.1" width="8.46" height="3.29" fill="#ff490f"/><rect x="278.52" y="145.63" width="8.46" height="3.29" fill="#ff490f"/><rect x="288.05" y="197.24" width="8.46" height="3.29" fill="#ff490f"/><rect x="293.42" y="191.76" width="8.46" height="3.29" fill="#ff490f"/><rect x="163.59" y="151.1" width="8.46" height="3.29" fill="#ff490f"/><rect x="174.27" y="151.1" width="8.46" height="3.29" fill="#ff490f"/><rect x="168.96" y="145.63" width="8.46" height="3.29" fill="#ff490f"/><rect x="179.64" y="145.63" width="8.46" height="3.29" fill="#ff490f"/><rect x="189.24" y="213.54" width="8.46" height="3.29" transform="translate(386.93 430.37) rotate(180)" fill="#ff490f"/><rect x="220.77" y="208.07" width="8.46" height="3.29" transform="translate(450 419.42) rotate(180)" fill="#ff490f"/><rect x="178.56" y="213.54" width="8.46" height="3.29" transform="translate(365.58 430.37) rotate(180)" fill="#ff490f"/><rect x="183.87" y="208.07" width="8.46" height="3.29" transform="translate(376.19 419.42) rotate(180)" fill="#ff490f"/><rect x="173.19" y="208.07" width="8.46" height="3.29" transform="translate(354.84 419.42) rotate(180)" fill="#ff490f"/><rect x="148.22" y="179.57" width="6.11" height="3.29" fill="#ff490f"/><rect x="152.1" y="174.1" width="6.11" height="3.29" fill="#ff490f"/><path d="M286.42,166.39a.63.63,0,0,0-.63.63v4.81a.63.63,0,0,0,1.26,0V167A.63.63,0,0,0,286.42,166.39Z" fill="#f5f5f5"/><path d="M286.42,209.41a.63.63,0,0,0-.63.63v4.81a.63.63,0,0,0,1.26,0V210A.63.63,0,0,0,286.42,209.41Z" fill="#f5f5f5"/><rect x="218.87" y="151.1" width="4.23" height="3.29" fill="#ff490f"/><rect x="223.69" y="145.63" width="4.23" height="3.29" fill="#ff490f"/><rect x="212.38" y="145.63" width="8.46" height="3.29" fill="#ff490f"/><rect x="155.46" y="207.84" width="4.23" height="3.29" fill="#ff490f"/><rect x="148.27" y="202.36" width="8.46" height="3.29" fill="#ff490f"/><rect x="289.4" y="175.61" width="6.1" height="3.29" fill="#ff490f"/><rect x="233.25" y="165.31" width="4.27" height="3.29" fill="#ff490f"/><rect x="235.38" y="170.04" width="4.27" height="3.29" fill="#ff490f"/><path d="M163.29,139.25a8.8,8.8,0,0,0,8.81,8.81h0a8.81,8.81,0,0,0,8.82-8.81v-5.5H163.29Z" fill="#e0e0e0"/><path d="M198.55,139.25a8.81,8.81,0,0,0,8.82,8.81h0a8.8,8.8,0,0,0,8.81-8.81v-5.5H198.55Z" fill="#e0e0e0"/><path d="M233.82,139.25a8.8,8.8,0,0,0,8.81,8.81h0a8.81,8.81,0,0,0,8.82-8.81v-5.5H233.82Z" fill="#e0e0e0"/><path d="M269.08,133.75v5.5a8.81,8.81,0,0,0,8.82,8.81h0a8.8,8.8,0,0,0,8.81-8.81v-5.5Z" fill="#e0e0e0"/><polygon points="163.29 133.75 180.92 133.75 183.03 127.33 166.24 127.33 163.29 133.75" fill="#eee"/><polygon points="198.55 133.75 216.18 133.75 216.6 127.33 199.81 127.33 198.55 133.75" fill="#eee"/><polygon points="233.4 127.33 233.82 133.75 251.45 133.75 250.19 127.33 233.4 127.33" fill="#eee"/><polygon points="283.76 127.33 266.98 127.33 269.08 133.75 286.71 133.75 283.76 127.33" fill="#eee"/><path d="M145.65,139.25a8.81,8.81,0,0,0,8.82,8.81h0a8.81,8.81,0,0,0,8.82-8.81v-5.5H145.65Z" fill="#e31b23"/><path d="M180.92,139.25a8.81,8.81,0,0,0,8.82,8.81h0a8.81,8.81,0,0,0,8.81-8.81v-5.5H180.92Z" fill="#e31b23"/><path d="M216.18,139.25a8.82,8.82,0,0,0,17.64,0v-5.5H216.18Z" fill="#e31b23"/><path d="M251.45,139.25a8.81,8.81,0,0,0,8.81,8.81h0a8.81,8.81,0,0,0,8.82-8.81v-5.5H251.45Z" fill="#e31b23"/><path d="M286.71,133.75v5.5a8.81,8.81,0,0,0,8.82,8.81h0a8.81,8.81,0,0,0,8.82-8.81v-5.5Z" fill="#e31b23"/><polygon points="145.65 133.75 163.29 133.75 166.24 127.33 149.44 127.33 145.65 133.75" fill="#dc394d"/><polygon points="180.92 133.75 198.55 133.75 199.81 127.33 183.03 127.33 180.92 133.75" fill="#dc394d"/><polygon points="216.6 127.33 216.18 133.75 233.82 133.75 233.4 127.33 216.6 127.33" fill="#dc394d"/><polygon points="250.19 127.33 251.45 133.75 269.08 133.75 266.98 127.33 250.19 127.33" fill="#dc394d"/><polygon points="300.56 127.33 283.76 127.33 286.71 133.75 304.35 133.75 300.56 127.33" fill="#dc394d"/><rect x="151.28" y="156.72" width="4.48" height="3.29" fill="#ff490f"/><rect x="161.51" y="157.42" width="71.74" height="43.52" fill="#3e2723"/><rect x="164.02" y="159.94" width="66.71" height="38.49" fill="#80cbc4"/><polygon points="230.73 171.29 230.73 177.25 213.42 159.94 219.38 159.94 230.73 171.29" fill="#b2dfdb"/><polygon points="230.73 178.91 230.73 181.88 208.79 159.94 211.77 159.94 230.73 178.91" fill="#b2dfdb"/><polygon points="230.73 192.47 230.73 198.43 224.78 198.43 186.29 159.94 198.2 159.94 230.73 192.47" fill="#b2dfdb"/><rect x="164.02" y="159.94" width="66.71" height="1.35" fill="#212121" opacity="0.2" style="mix-blend-mode:multiply"/><rect x="157.77" y="200.94" width="79.21" height="8.19" fill="#fafbfb"/><path d="M232.07,196.15H162.69a3.33,3.33,0,0,0-3.33,3.32v1.47h76v-1.47A3.33,3.33,0,0,0,232.07,196.15Z" fill="#2e7d32"/><rect x="157.77" y="200.94" width="79.21" height="1.75" fill="#eee"/><path d="M235.39,199.3h-76a1,1,0,0,0,0,.17v1.47h76v-1.47C235.4,199.42,235.39,199.36,235.39,199.3Z" fill="#1b5e20"/><polygon points="244.07 208.03 244.07 225.15 173.79 225.15 157.77 209.13 236.98 209.13 236.98 200.94 244.07 208.03" fill="#212121" opacity="0.4" style="mix-blend-mode:multiply"/><path d="M266,83.43H184c-1.28,0-2.32,2-2.32,4.41V111.9c0,2.43,1,4.41,2.32,4.41h82c1.28,0,2.32-2,2.32-4.41V87.84C268.34,85.41,267.3,83.43,266,83.43Z" fill="#3e2723"/><path d="M264.43,86H185.57c-.81,0-1.46,1.27-1.46,2.83v22c0,1.56.65,2.83,1.46,2.83h78.86c.81,0,1.46-1.27,1.46-2.83v-22C265.89,87.31,265.24,86,264.43,86Z" fill="#e31b23"/><path d="M265.89,88.87v.32H184.11v-.32c0-1.56.65-2.83,1.46-2.83h78.86C265.24,86,265.89,87.31,265.89,88.87Z" fill="#212121" opacity="0.2" style="mix-blend-mode:multiply"/><rect x="184.11" y="116.31" width="1.67" height="2.69" fill="#212121"/><rect x="264.22" y="116.31" width="1.67" height="2.69" fill="#212121"/><g id="86975fd8-c2c9-4e09-99e2-0b2b7e5b1ae3" data-name="Flag"><path d="M228.45,95.79c-3.9.88-11.29-.37-11.29-.37l-.95-2.22c-3.69-2.28-8.78-2.45-11.87-2.29l-.43-.55-.84-.3-.92-.08-.89.27.37,1-.19,1s.5,1.28,1.38,4.14a45.82,45.82,0,0,1,1.24,5.91,8,8,0,0,0,.6.94l.08,1,.16.31.42,6.28.24-.06-.44-6.93.49,0,.38,6.88.39-.1.26-7.49a37.57,37.57,0,0,1,9.85-1l-.28.9a3.19,3.19,0,0,0,1.7,1.7,20.33,20.33,0,0,0,9.33,1c1.5-.17,2.73-.4,2.73-.4C227.26,99.07,228.45,95.79,228.45,95.79Zm-1.13.64.21.66-.09,1-2,0L225,96.64A17.15,17.15,0,0,0,227.32,96.43ZM220.48,98l-.84-1.57,2.69.13.48,1.6-.66,0h0l-.89,0a6.57,6.57,0,0,1-.77-.09h0l.37.71.42,1.1h0l-.26,0-.8-.06-.79-.73-1.14-1.47,2.2.46Zm-2.54.8h0l.14,0,.73.22h0l.16,0,2.82,2.44.29.31-.06.22h0l-.44-.47-1.18-.92h-.12l-1.47-.23L218,99.33l-.72-.74A5.12,5.12,0,0,1,217.94,98.75Zm-8.6-5.48,1.71.3-1.16-1.93,1.54.2,1.72.39,1,1.89.91.19.14.08h0l.6.37.61.36a9,9,0,0,1,1,1.75h0A9.13,9.13,0,0,0,216,96.4h0l-.35-.07-1.45-2.21-1.46-.34-1.69-.21,1.13,2.2-2.31-.21-1.45.14-1.22-2.33ZM202,91.12l-.25-.65.24-.2.5,0,.85.67C202.77,91,202.31,91.08,202,91.12Zm.78,2.88h0l.52-.27,1.05,0-.51-1.35-.47-.86s1.8-.2,3-.2l.82,2.1-1.52-.07-1.31.38,1.15,2.18h0l-2,.42Zm3.32,6.46-1.36.76-.09-1.56-.37-.91,1-.41,1.2-.26s.28,1.23.58,2.3Zm3.83,1.05-2.13.56h0l-.49-.72-.15-.82,1.66-.7,2,0h0l.35.77.42.93Zm2.38-1.88-1.44.23a13.87,13.87,0,0,1-1.15-2l-2.07,0-1.16.27L205.81,96l.84-.25.66,0h0l1.1,0,.77,1.31h0l.37.61h2.37l1.55.18-1.3-2,1.51.15,1.74.44s.74,1.23,1.32,2l-1.3-.3-2-.25,1.45,2-2.44-.16-.17,0Zm5.83,4.56-.82-.85-.22-.39.43-.24,1,1,0,.74Zm.48-2-.41.17h0l-.38.16-.3-.43h.63l.46.09Zm-.16-.38-2.37-.29,0,0-1.14-1.68,2.14.27,1.77.35.84,1.07,0,.58Zm1.27,1.44-.32-.92,1.89.29h0l.17.08h0l.15.07L221,103l-.52.08-.6.1h-.1Zm2.6,2.21-.58,0h-.2l-1.26-.2-.54-.93.36-.47,1.27.17,1,1.38h0Zm-.55-1.64-.23-.44h0l.61-.17.62-.46h0l.7,1h0Zm1.91-2h-1.28l-.74-1.92,1.91.12-.26-.7V99.2l-.07-.66h0l0-.31a17.55,17.55,0,0,0,2.17-.13,5.74,5.74,0,0,1,.47,1.76c-.48.1-2.28.14-2.28.14l.7,1.83Zm2.65,1.76-1.14.11.67,1.62-1.45.11-.67-1.59,1.45-.14L224.7,102l.56,0h0l.56,0,.68-.11s-.31-1.14-.33-1.27-.1-.69-.1-.69l1.59,0s.32,1.25.59,2l-1.62.24.36,1.32-.64.06Zm2.9,1.37-1.49.09h0l-.17-.41h0l-.34-.84,1.51-.09.89,1.18-.4.07Z" fill="#fff"/><polygon points="222.79 102.71 222.17 103.17 222.79 102.72 222.79 102.71" fill="#e31b23"/><polygon points="221.39 104.05 222.34 105.42 222.34 105.42 221.39 104.05" fill="#e31b23"/><polygon points="208.42 95.7 207.32 95.72 209.19 97.01 208.42 95.7" fill="#e31b23"/><path d="M209.87,95.56l2.31.21-1.13-2.2-1.71-.3-2.14.1,1.22,2.33Z" fill="#e31b23"/><polygon points="221.79 103.78 221.56 103.35 221.56 103.35 221.79 103.79 223.5 103.75 223.49 103.74 221.79 103.78" fill="#e31b23"/><polygon points="220.3 105.27 219.76 104.34 220.3 105.27 221.56 105.47 221.76 105.46 221.56 105.47 220.3 105.27" fill="#e31b23"/><polygon points="219.42 102.3 221.31 102.59 221.31 102.59 219.41 102.3 219.74 103.22 219.83 103.21 219.72 103.15 219.42 102.3" fill="#e31b23"/><polygon points="220.44 103.11 220.96 103.03 221.64 102.73 221.49 102.67 220.55 103.09 220.44 103.11" fill="#e31b23"/><polygon points="214.2 94.12 213.15 92.23 211.43 91.84 209.89 91.64 211.05 93.58 212.74 93.78 214.2 94.12" fill="#e31b23"/><path d="M227.76,105l1.49-.09-1.49.09Z" fill="#e31b23"/><path d="M228.77,103.7l-1.51.09.34.84c.66.1,1.52.14,2,.16l.06.09-.39.07.4-.07Z" fill="#e31b23"/><path d="M226.63,102.2l1.62-.24c-.27-.72-.59-2-.59-2l-1.59,0s.07.56.1.69.33,1.27.33,1.27l-.68.11-.56,0,.63,1.13.46.38.64-.06Z" fill="#e31b23"/><path d="M225.4,98.11a17.55,17.55,0,0,1-2.17.13l0,.31.43.18.5.65.18.61-.78,0-.25-.7,0-.11v.11l.26.7s1.8,0,2.28-.14A5.74,5.74,0,0,0,225.4,98.11Z" fill="#e31b23"/><path d="M204.13,93.07l.62.49-.39.12,1.15,2.18h0l-1.15-2.18,1.31-.38,1.52.07-.82-2.1c-1.19,0-3,.2-3,.2l.47.86.51,1.35h0Z" fill="#e31b23"/><polygon points="202.79 94 203.54 96.28 202.79 94 202.79 94" fill="#e31b23"/><polygon points="211.65 101.56 209.93 101.51 207.81 102.07 207.81 102.07 209.94 101.51 211.65 101.56 211.23 100.63 211.65 101.56" fill="#e31b23"/><polygon points="218.16 102.07 217.54 102.06 217.84 102.49 218.22 102.33 217.75 102.06 218.17 102.07 218.63 102.16 218.63 102.16 218.16 102.07" fill="#e31b23"/><path d="M218.84,99l.16,0Z" fill="#e31b23"/><polygon points="214.93 99.77 213.48 97.8 211.93 97.62 210.09 97.62 211.57 98.63 212.32 99.63 212.49 99.61 214.93 99.77" fill="#e31b23"/><path d="M218.08,98.79l.73.22Z" fill="#e31b23"/><polygon points="221.01 99.75 221.27 99.77 221.27 99.76 221.27 99.77 221.01 99.75" fill="#e31b23"/><polygon points="220.38 100.63 220.43 100.64 220.43 100.64 220.38 100.63" fill="#e31b23"/><path d="M218.84,100.39l1.47.23-2.37-1.87a5.12,5.12,0,0,0-.66-.16l.72.74Z" fill="#e31b23"/><path d="M217.43,96.87h0a9,9,0,0,0-1-1.75l-.61-.36.61.36A9.56,9.56,0,0,1,217.43,96.87Z" fill="#e31b23"/><path d="M216,96.4,215.33,95l-.08-.56-.14-.08-.91-.19,1.45,2.21Z" fill="#e31b23"/><polygon points="220.48 97.95 220.48 97.95 218.28 97.5 219.42 98.96 218.28 97.5 220.48 97.95" fill="#e31b23"/><polygon points="222.05 102.03 222.05 102.03 222.11 101.81 221.82 101.5 222.1 101.81 222.05 102.03" fill="#e31b23"/><polygon points="210.88 99.86 208.83 99.83 210.88 99.86 210.88 99.86" fill="#e31b23"/><path d="M221.26,98c-.26,0-.51-.05-.77-.09A6.57,6.57,0,0,0,221.26,98Z" fill="#e31b23"/><path d="M227.44,98.08l.09-1-.21-.66a17.15,17.15,0,0,1-2.37.21l.45,1.47Z" fill="#e31b23"/><path d="M216.75,98.35c-.58-.76-1.32-2-1.32-2l-1.74-.44-1.51-.15,1.3,2,2,.25Z" fill="#e31b23"/><path d="M217.25,101.2c.18,0,1.79.18,2.43.26l-.84-1.07-1.77-.35-2.14-.27,1.14,1.68,0-.08C216.43,101.29,216.84,101.24,217.25,101.2Z" fill="#e31b23"/><path d="M222.15,98.09l.66,0-.48-1.6-2.69-.13.84,1.57h0l-.39-.72Z" fill="#e31b23"/><polygon points="217.54 102.71 217.11 102.95 217.33 103.34 218.15 104.19 218.47 104.42 218.49 103.68 217.54 102.71" fill="#e31b23"/><path d="M219.68,101.46c-.64-.08-2.25-.25-2.43-.26-.41,0-.82.09-1.23.17l0,.08,0,0,2.37.29,1.17.26Z" fill="#e31b23"/><polygon points="205.51 95.86 204.36 93.67 204.35 93.67 203.31 93.73 202.79 94 202.79 94 203.54 96.28 205.51 95.86 205.51 95.86" fill="#e31b23"/><polygon points="204.13 93.07 204.36 93.67 204.75 93.56 204.13 93.07" fill="#e31b23"/><polygon points="220.44 103.11 220.55 103.09 221.49 102.67 221.49 102.67 221.32 102.59 221.31 102.59 219.42 102.3 219.72 103.15 219.83 103.21 219.84 103.21 220.44 103.11" fill="#e31b23"/><path d="M205.29,98.34l-1,.41.37.91.09,1.56,1.36-.76,1-.08c-.3-1.07-.58-2.3-.58-2.3Z" fill="#e31b23"/><polygon points="217.75 102.06 218.22 102.33 218.22 102.33 218.63 102.16 218.63 102.16 218.17 102.07 217.75 102.06" fill="#e31b23"/><path d="M210.09,97.62h-.53l-.37-.61h0l-1.87-1.29h0l-.66,0-.84.25.69,2.09,1.16-.27,2.07,0a13.87,13.87,0,0,0,1.15,2l1.44-.23h0l-.75-1Z" fill="#e31b23"/><polygon points="211.65 101.56 211.23 100.63 210.88 99.86 210.88 99.86 208.83 99.83 207.17 100.53 207.32 101.35 207.81 102.07 207.81 102.07 209.93 101.51 211.65 101.56" fill="#e31b23"/><polygon points="218.28 97.5 219.42 98.96 220.21 99.69 221.01 99.75 221.27 99.77 221.27 99.76 220.85 98.66 220.48 97.95 220.48 97.95 218.28 97.5" fill="#e31b23"/><path d="M216,96.4h0a9.13,9.13,0,0,1,1.42.48h0a9.56,9.56,0,0,0-1-1.75l-.61-.36-.6-.37h0l.08.56Z" fill="#e31b23"/><polygon points="225.26 102.07 225.26 102.06 224.7 102.03 225.21 103.69 226.35 103.58 226.35 103.58 225.89 103.2 225.26 102.07" fill="#e31b23"/><polygon points="223.49 103.74 223.5 103.74 222.8 102.72 222.79 102.72 222.17 103.17 221.56 103.34 221.56 103.35 221.79 103.78 223.49 103.74" fill="#e31b23"/><polygon points="224.43 105.42 225.88 105.31 225.21 103.69 223.76 103.83 224.43 105.42" fill="#e31b23"/><path d="M229.59,104.79c-.47,0-1.33-.06-2-.16h0l.17.41h0l1.49-.09h0l.39-.07Z" fill="#e31b23"/><path d="M220.31,100.62h.12l1.18.92.44.47h0l0-.22-.28-.31L219,99.06l-.16,0h0l-.73-.22-.14,0h0l2.37,1.87Z" fill="#e31b23"/><path d="M223.59,100l.78,0-.18-.61-.5-.65-.43-.18h0l.07.66,0,.11Z" fill="#e31b23"/><polygon points="221.68 99.89 222.42 101.81 223.7 101.82 224.29 101.84 223.59 100.01 221.68 99.89" fill="#e31b23"/><path d="M220.49,98c.26,0,.51.07.77.09l.89,0h0l-2.06-.86.39.72h0Z" fill="#e31b23"/><polygon points="220.12 103.87 219.76 104.34 220.3 105.27 221.56 105.47 221.76 105.46 222.34 105.42 222.34 105.42 221.39 104.05 220.12 103.87" fill="#e31b23"/><path d="M202,90.27l-.24.2.25.65c.3,0,.76-.09,1.34-.14l-.85-.67Z" fill="#e31b23"/></g><g id="40698f55-c2bc-4dd9-a7c7-f50e231d74c9" data-name="Fast"><polygon points="204.13 100.52 210.9 100.52 210.9 102.78 206.88 102.78 206.88 104.61 210.32 104.61 210.32 106.73 206.88 106.73 206.88 111.03 204.13 111.03 204.13 100.52" fill="#fff"/><path d="M214.38,108v2.71a3.45,3.45,0,0,1-.55.07,2.51,2.51,0,0,1-2.06-1,4.05,4.05,0,0,1,0-4.9,2.53,2.53,0,0,1,2-1,2.57,2.57,0,0,1,2.09,1,4,4,0,0,1,.76,2.55v3.26h-2.17v-3.09a1.35,1.35,0,0,0-.19-.71.56.56,0,0,0-.47-.26.59.59,0,0,0-.46.23.94.94,0,0,0-.19.58.84.84,0,0,0,.17.55.54.54,0,0,0,.44.22,1.48,1.48,0,0,0,.59-.16" fill="#fff"/><path d="M221.26,104.09v2.79c-.33,0-.54.05-.62.15a1.37,1.37,0,0,0-.16.66,3.31,3.31,0,0,1-1.4,2.72,2.1,2.1,0,0,1-1.48.39h-.38V108h.19a.75.75,0,0,0,.6-.21,1.27,1.27,0,0,0,.21-.76,6.61,6.61,0,0,1,.16-1.4,2.12,2.12,0,0,1,.47-.84,2.05,2.05,0,0,1,1.68-.72h.73" fill="#fff"/><path d="M223.76,101.65v2.44h.88v2.79h-.88a1.51,1.51,0,0,0,.16.83q.17.24.75.24v2.77h-.34a2.42,2.42,0,0,1-1.32-.39,3,3,0,0,1-1-1.06,4.74,4.74,0,0,1-.47-2.26v-5.37h2.21" fill="#fff"/><path d="M206.88,111.16h-2.75A.14.14,0,0,1,204,111h0V100.52a.15.15,0,0,1,.14-.13h6.77a.15.15,0,0,1,.14.14h0v2.25a.14.14,0,0,1-.14.14H207v1.56h3.3a.13.13,0,0,1,.13.13h0v2.12a.13.13,0,0,1-.13.14H207V111a.13.13,0,0,1-.13.13Zm-2.61-.27h2.47v-4.16a.13.13,0,0,1,.14-.13h3.3v-1.85h-3.3a.13.13,0,0,1-.13-.14v-1.83a.13.13,0,0,1,.13-.13h3.89v-2h-6.5Z" fill="#e31b23"/><path d="M213.83,110.86a2.58,2.58,0,0,1-2.12-1,4.11,4.11,0,0,1,0-5,2.6,2.6,0,0,1,2.09-1,2.64,2.64,0,0,1,2.18,1,4.17,4.17,0,0,1,.79,2.62v3.25a.09.09,0,0,1-.1.09h-2.2a.08.08,0,0,1-.07.07A2.62,2.62,0,0,1,213.83,110.86Zm0-6.89a2.43,2.43,0,0,0-1.95,1,4,4,0,0,0,0,4.79,2.42,2.42,0,0,0,2,1,1.84,1.84,0,0,0,.47-.06v-2.48a1.26,1.26,0,0,1-.51.11.61.61,0,0,1-.51-.25.94.94,0,0,1-.19-.61,1.05,1.05,0,0,1,.21-.62.7.7,0,0,1,.53-.28.65.65,0,0,1,.55.31,1.35,1.35,0,0,1,.19.76v3h2v-3.15a3.92,3.92,0,0,0-.75-2.5,2.45,2.45,0,0,0-2-.91Zm0,2.7a.49.49,0,0,0-.38.21.75.75,0,0,0-.16.5.76.76,0,0,0,.14.49.43.43,0,0,0,.37.19,1.42,1.42,0,0,0,.56-.15h0v-.34a1.18,1.18,0,0,0-.16-.66A.45.45,0,0,0,213.83,106.67Z" fill="#e31b23"/><path d="M217.61,110.9h-.38a.09.09,0,0,1-.09-.1V108a.09.09,0,0,1,.09-.1h.19a.68.68,0,0,0,.53-.17,1.23,1.23,0,0,0,.19-.7,7.53,7.53,0,0,1,.16-1.42,2.32,2.32,0,0,1,.49-.88,2.16,2.16,0,0,1,1.76-.76h.71a.1.1,0,0,1,.09.1v2.78a.1.1,0,0,1-.09.1c-.41,0-.51.08-.54.11a1.17,1.17,0,0,0-.15.61,3.42,3.42,0,0,1-1.43,2.79A2.17,2.17,0,0,1,217.61,110.9Zm-.28-.19h.28a2,2,0,0,0,1.41-.37h0a3.22,3.22,0,0,0,1.36-2.65,1.41,1.41,0,0,1,.19-.72.83.83,0,0,1,.59-.19v-2.59h-.62a2,2,0,0,0-1.61.68,2.33,2.33,0,0,0-.46.81,8,8,0,0,0-.15,1.38,1.43,1.43,0,0,1-.22.81.82.82,0,0,1-.68.24h-.1Z" fill="#e31b23"/><path d="M224.33,110.83a2.5,2.5,0,0,1-1.37-.41,2.92,2.92,0,0,1-1-1.1,4.85,4.85,0,0,1-.48-2.3v-5.37a.09.09,0,0,1,.09-.09h2.21a.09.09,0,0,1,.09.09h0V104h.79a.09.09,0,0,1,.09.09h0v2.79a.09.09,0,0,1-.09.09h-.79a1.39,1.39,0,0,0,.15.69c.09.13.32.2.67.2a.09.09,0,0,1,.1.09v2.77a.09.09,0,0,1-.09.09h-.35Zm-2.68-9.08V107a4.82,4.82,0,0,0,.45,2.22,2.85,2.85,0,0,0,1,1,2.34,2.34,0,0,0,1.26.39h.25v-2.6c-.38,0-.62-.11-.73-.29a1.52,1.52,0,0,1-.19-.88.09.09,0,0,1,.09-.1h.79v-2.59h-.79a.09.09,0,0,1-.09-.1h0v-2.34Z" fill="#e31b23"/></g><path d="M226.07,103.51h1.63a.11.11,0,0,1,.1.09v6.8h2.29v-6.8a.09.09,0,0,1,.09-.09h1.63v-2.89h-5.74Z" fill="#fff"/><path d="M235.21,105.94a1.24,1.24,0,0,1,.42.11v-2.88a3.72,3.72,0,0,0-.66-.08,2,2,0,0,0-1.75.91,4.3,4.3,0,0,0-.66,2.5v3.9h2.11V107C234.67,106.3,234.85,105.94,235.21,105.94Z" fill="#fff"/><path d="M238.88,103.09h0a2.47,2.47,0,0,0-2,1.08,4.6,4.6,0,0,0,0,5.34,2.53,2.53,0,0,0,2.08,1.06,2.63,2.63,0,0,0,.49-.07v-2.79a1.42,1.42,0,0,1-.53.13.61.61,0,0,1-.53-.28,1,1,0,0,1-.19-.68,1.12,1.12,0,0,1,.21-.68.74.74,0,0,1,.56-.3.64.64,0,0,1,.57.34,1.65,1.65,0,0,1,.19.84v3.32h2.12v-3.51a4.61,4.61,0,0,0-.79-2.79A2.55,2.55,0,0,0,238.88,103.09Z" fill="#fff"/><path d="M248.57,107l-1,0-1.08,0c-.16.52-.41.79-.74.79a.7.7,0,0,1-.59-.31,1.16,1.16,0,0,1-.22-.72,1.12,1.12,0,0,1,.21-.71.7.7,0,0,1,.57-.3.81.81,0,0,1,.69.46l2.11-.1a4.15,4.15,0,0,0-1-2.24,2.41,2.41,0,0,0-1.84-.83h0a2.47,2.47,0,0,0-2,1.06,4.14,4.14,0,0,0-.87,2.62,4.25,4.25,0,0,0,.86,2.7,2.5,2.5,0,0,0,2.06,1.09,2.45,2.45,0,0,0,2-1A4.44,4.44,0,0,0,248.57,107Z" fill="#fff"/><path d="M231.9,100.43H226a.11.11,0,0,0-.09.1v3.07h0a.09.09,0,0,0,.09.09h1.65v6.81h0a.09.09,0,0,0,.09.09h2.48a.09.09,0,0,0,.09-.09v-6.81h1.62a.09.09,0,0,0,.09-.09v-3.07A.1.1,0,0,0,231.9,100.43Zm-.09,3.08h-1.63a.09.09,0,0,0-.09.09v6.8H227.8v-6.8a.11.11,0,0,0-.1-.09h-1.63v-2.89h5.74Z" fill="#e31b23"/><path d="M235.81,106.2v-3.1a.09.09,0,0,0-.08-.09,3.86,3.86,0,0,0-.76-.1,2.2,2.2,0,0,0-1.9,1,4.41,4.41,0,0,0-.7,2.6v4h0a.09.09,0,0,0,.09.09h2.31a.09.09,0,0,0,.08-.09V107c0-.4.06-.88.35-.88a1.29,1.29,0,0,1,.47.15.09.09,0,0,0,.1,0A.12.12,0,0,0,235.81,106.2Zm-1.14,4.2h-2.11v-3.9a4.3,4.3,0,0,1,.66-2.5,2,2,0,0,1,1.75-.91,3.72,3.72,0,0,1,.66.08v2.88a1.24,1.24,0,0,0-.42-.11c-.36,0-.54.36-.54,1.07Z" fill="#e31b23"/><path d="M238.88,102.91a2.67,2.67,0,0,0-2.21,1.14,4.48,4.48,0,0,0-.89,2.78,4.39,4.39,0,0,0,.89,2.79,2.7,2.7,0,0,0,2.23,1.13,3.17,3.17,0,0,0,.61-.07.08.08,0,0,0,.07-.07h2.3a.09.09,0,0,0,.09-.09V106.9a4.73,4.73,0,0,0-.82-2.9A2.7,2.7,0,0,0,238.88,102.91Zm.6,4.19v.39h0a1.34,1.34,0,0,1-.58.17.43.43,0,0,1-.38-.2.9.9,0,0,1-.16-.57.88.88,0,0,1,.18-.57.51.51,0,0,1,.4-.23.45.45,0,0,1,.41.27A1.37,1.37,0,0,1,239.48,107.1Zm2.31,3.3h-2.12v-3.32a1.65,1.65,0,0,0-.19-.84.64.64,0,0,0-.57-.34.74.74,0,0,0-.56.3,1.12,1.12,0,0,0-.21.68,1,1,0,0,0,.19.68.61.61,0,0,0,.53.28,1.42,1.42,0,0,0,.53-.13v2.79a2.63,2.63,0,0,1-.49.07,2.53,2.53,0,0,1-2.08-1.06,4.6,4.6,0,0,1,0-5.34,2.47,2.47,0,0,1,2-1.08h0a2.55,2.55,0,0,1,2.12,1,4.61,4.61,0,0,1,.79,2.79Z" fill="#e31b23"/><path d="M248.72,106.79a.07.07,0,0,0-.07,0l-1.11,0-1.14.06a.09.09,0,0,0-.09.06c-.12.48-.32.72-.57.72a.53.53,0,0,1-.44-.23,1,1,0,0,1-.18-.61,1,1,0,0,1,.17-.6.5.5,0,0,1,.42-.22c.21,0,.39.14.55.41a.09.09,0,0,0,.08,0l2.29-.11a.11.11,0,0,0,.07,0,.19.19,0,0,0,0-.08,4.38,4.38,0,0,0-1.06-2.44,2.6,2.6,0,0,0-2-.89,2.66,2.66,0,0,0-2.18,1.14,4.28,4.28,0,0,0-.91,2.73,4.51,4.51,0,0,0,.9,2.81,2.65,2.65,0,0,0,2.21,1.17,2.61,2.61,0,0,0,2.08-1.07,4.67,4.67,0,0,0,1-2.82A.07.07,0,0,0,248.72,106.79Zm-3,3.77a2.5,2.5,0,0,1-2.06-1.09,4.25,4.25,0,0,1-.86-2.7,4.14,4.14,0,0,1,.87-2.62,2.47,2.47,0,0,1,2-1.06h0a2.41,2.41,0,0,1,1.84.83,4.15,4.15,0,0,1,1,2.24l-2.11.1a.81.81,0,0,0-.69-.46.7.7,0,0,0-.57.3,1.12,1.12,0,0,0-.21.71,1.16,1.16,0,0,0,.22.72.7.7,0,0,0,.59.31c.33,0,.58-.27.74-.79l1.08,0,1,0a4.44,4.44,0,0,1-.9,2.61A2.45,2.45,0,0,1,245.71,110.56Z" fill="#e31b23"/><g id="5d9af670-6104-49de-bcce-b36031023c30" data-name="Reg"><path d="M246.33,101.35a1.14,1.14,0,0,1,.14-.54,1.1,1.1,0,0,1,.4-.4,1.11,1.11,0,0,1,1.08,0,1.07,1.07,0,0,1,.39.4,1,1,0,0,1,.15.54,1.13,1.13,0,0,1-.14.53,1,1,0,0,1-.39.39,1.08,1.08,0,0,1-1.1,0,1,1,0,0,1-.39-.39A1.1,1.1,0,0,1,246.33,101.35Zm.15,0a.84.84,0,0,0,.13.46.86.86,0,0,0,.34.34.94.94,0,0,0,.92,0,.92.92,0,0,0,.34-.34.94.94,0,0,0,.13-.46,1,1,0,0,0-.13-.47.92.92,0,0,0-.34-.34.94.94,0,0,0-.92,0,.92.92,0,0,0-.34.34A.85.85,0,0,0,246.48,101.35Zm1.37-.26a.36.36,0,0,1-.06.2.4.4,0,0,1-.18.13l.35.57h-.25l-.29-.51h-.2V102H247v-1.28h.38a.58.58,0,0,1,.35.09A.37.37,0,0,1,247.85,101.09Zm-.63.21h.16a.24.24,0,0,0,.18-.06.18.18,0,0,0,.07-.15.18.18,0,0,0-.06-.15.31.31,0,0,0-.19,0h-.16Z" fill="#fff"/></g></g></g></svg>